<svg xmlns="http://www.w3.org/2000/svg" xmlns:xlink="http://www.w3.org/1999/xlink" width="91" height="105" viewBox="0 0 91 105"><defs><path id="hx8ba" d="M98 50.338v53.514A3.156 3.156 0 0 1 94.838 107H10.162a3.156 3.156 0 0 1-3.163-3.148V50.338c0-.988.467-1.92 1.259-2.514l42.338-31.785a3.173 3.173 0 0 1 3.808 0l42.338 31.785A3.144 3.144 0 0 1 98 50.338zm-6.325 50.365V51.907L52.5 22.497l-39.176 29.41v48.796zM7.637 38.825a3.14 3.14 0 0 1 .621-4.409L50.596 2.632a3.173 3.173 0 0 1 3.808 0l42.338 31.785a3.139 3.139 0 0 1 .62 4.409 3.162 3.162 0 0 1-2.527 1.253 3.156 3.156 0 0 1-1.901-.635L52.5 9.089 12.066 39.444a3.172 3.172 0 0 1-4.43-.619zm44.863.112c6.701 0 12.153 5.428 12.153 12.1v3.503a3.156 3.156 0 0 1-3.162 3.148 3.156 3.156 0 0 1-3.163-3.148v-3.503c0-3.2-2.615-5.803-5.828-5.803-3.214 0-5.829 2.603-5.829 5.803v8.389h16.997c3.7 0 6.712 2.997 6.712 6.681v21.79c0 3.684-3.011 6.682-6.712 6.682H41.332c-3.701 0-6.712-2.998-6.712-6.682v-21.79c0-3.35 2.492-6.124 5.726-6.601v-8.47c0-6.671 5.452-12.099 12.154-12.099zm11.168 26.786H41.332a.386.386 0 0 0-.387.384v21.79c0 .212.173.385.387.385h22.336a.386.386 0 0 0 .387-.385v-21.79a.385.385 0 0 0-.387-.384z"/><linearGradient id="hx8bb" x1="98" x2="7" y1="55" y2="54" gradientUnits="userSpaceOnUse"><stop offset="0" stop-color="#6289f2"/><stop offset="1" stop-color="#2753c9"/></linearGradient></defs><g><g transform="translate(-7 -2)"><use xlink:href="#hx8ba"/><use fill="url(#hx8bb)" xlink:href="#hx8ba"/></g></g></svg>