<svg xmlns="http://www.w3.org/2000/svg" xmlns:xlink="http://www.w3.org/1999/xlink" width="101" height="83" viewBox="0 0 101 83"><defs><path id="jfp5a" d="M103 29.91v63.18c0 5.464-4.41 9.91-9.831 9.91H11.83C6.411 103 2 98.554 2 93.09V29.91C2 24.446 6.41 20 11.831 20h9.831v8.832h61.676V20h9.83C98.59 20 103 24.446 103 29.91zM7.918 83.998a9.71 9.71 0 0 1 3.913-.82h3.913V25.967h-3.913c-2.158 0-3.913 1.77-3.913 3.944zm89.164 9.091c0-2.175-1.755-3.944-3.913-3.944h-9.831V34.798H21.662v54.347h-9.83c-2.159 0-3.914 1.77-3.914 3.944 0 2.176 1.755 3.945 3.913 3.945H93.17c2.158 0 3.913-1.77 3.913-3.945zm0-63.179c0-2.175-1.755-3.944-3.913-3.944h-3.913v57.213h3.913a9.71 9.71 0 0 1 3.913.819zM75.876 65.986l-3.746 4.618-3.939-3.247v16.53H36.81V67.28l-3.94 3.246-3.744-4.62L52.46 46.684zm-22.08 8.187h-2.592v3.748h2.593zm8.477-11.694l-9.814-8.09-9.732 8.017V77.92h2.56v-9.714h14.427v9.714h2.56z"/><linearGradient id="jfp5b" x1="103" x2="2" y1="62" y2="61" gradientUnits="userSpaceOnUse"><stop offset="0" stop-color="#6289f2"/><stop offset="1" stop-color="#2753c9"/></linearGradient></defs><g><g transform="translate(-2 -20)"><use xlink:href="#jfp5a"/><use fill="url(#jfp5b)" xlink:href="#jfp5a"/></g></g></svg>