<svg xmlns="http://www.w3.org/2000/svg" xmlns:xlink="http://www.w3.org/1999/xlink" width="101" height="120" viewBox="0 0 101 120"><defs><path id="k1tka" d="M101 23.75c0 29.19-3.672 48.627-11.905 63.022-8.177 14.294-20.347 23.183-37.333 32.893a2.544 2.544 0 0 1-2.524 0c-16.986-9.71-29.157-18.6-37.332-32.893C3.672 72.377 0 52.94 0 23.75c0-1.381 1.131-2.5 2.525-2.5 7.881 0 13.862-4.567 20.195-9.4C29.996 6.294 38.242 0 50.5 0c12.258 0 20.504 6.295 27.78 11.85 6.333 4.833 12.314 9.4 20.195 9.4 1.394 0 2.525 1.119 2.525 2.5zm-5.059 2.374c-8.319-.83-14.627-5.645-20.745-10.315-6.96-5.314-14.159-10.81-24.696-10.81s-17.735 5.496-24.696 10.81c-6.118 4.67-12.426 9.485-20.745 10.315.398 55.752 14.984 70.9 45.441 88.485 30.458-17.584 45.043-32.733 45.441-88.485zM19.61 31.93c-.354.185-.713.366-1.074.542-.358.175-.739.257-1.113.257a2.527 2.527 0 0 1-2.267-1.396 2.49 2.49 0 0 1 1.15-3.347c.319-.156.637-.317.95-.48a2.538 2.538 0 0 1 3.412 1.047 2.488 2.488 0 0 1-1.058 3.377zm65.434 13.51c.029-.309.056-.619.082-.928.118-1.376 1.342-2.398 2.73-2.28 1.389.117 2.42 1.326 2.302 2.702l-.084.96c-.12 1.298-1.221 2.273-2.512 2.273-.077 0-.154-.003-.231-.01-1.39-.125-2.413-1.341-2.287-2.716zM23.608 26.65a2.484 2.484 0 0 1 .569-3.49c1.41-1.008 2.81-2.063 4.162-3.083C35.212 14.894 41.705 10 50.5 10c1.395 0 2.525 1.12 2.525 2.5 0 1.381-1.13 2.5-2.525 2.5-7.09 0-12.657 4.197-19.102 9.055a206.603 206.603 0 0 1-4.265 3.159c-.447.32-.964.473-1.476.473a2.53 2.53 0 0 1-2.05-1.037zm47.01 60.237c7.032-8.211 11.488-19.498 13.625-34.505.195-1.367 1.47-2.32 2.853-2.127 1.38.193 2.342 1.457 2.148 2.824C86.97 69.05 82.137 81.166 74.47 90.12c-6.723 7.85-15.642 13.694-22.66 17.908l-.04.02a2.51 2.51 0 0 1-.186.095c-.04.019-.08.04-.12.057-.058.023-.117.041-.175.06-.048.016-.096.034-.144.046-.054.015-.108.023-.162.033-.054.01-.106.024-.16.03-.077.01-.154.013-.231.016-.03 0-.06.006-.09.006H50.5h-.002c-.03 0-.06-.005-.09-.006-.077-.003-.154-.006-.23-.016-.054-.006-.108-.02-.162-.03-.053-.01-.107-.019-.16-.033-.049-.013-.097-.03-.146-.047-.058-.019-.116-.037-.173-.06-.04-.016-.08-.037-.121-.056a2.607 2.607 0 0 1-.186-.095l-.04-.02c-7.018-4.215-15.937-10.058-22.66-17.907a2.483 2.483 0 0 1 .292-3.525 2.543 2.543 0 0 1 3.56.29c5.851 6.831 13.656 12.129 20.118 16.073 6.463-3.944 14.267-9.242 20.119-16.072zM72.6 28.903c2.197 0 4.258.842 5.803 2.373a8.078 8.078 0 0 1 .002 11.491L46.301 74.553a2.215 2.215 0 0 1-.067.067l-.104.1c-.016.015-.03.03-.047.044l-.106.097-.042.038-.108.094a1.884 1.884 0 0 1-.066.056l-.064.052c-.028.024-.057.048-.087.071l-.112.088-.041.032-.114.085-.059.043-.115.081-.06.042-.118.078a.755.755 0 0 1-.04.026l-.118.075-.056.035-.12.072a2.33 2.33 0 0 1-.059.034l-.122.069-.054.03-.065.034a2.37 2.37 0 0 1-.118.063l-.125.062a1.579 1.579 0 0 1-.05.025l-.125.06-.064.028-.065.029a2.42 2.42 0 0 1-.121.053l-.128.052-.042.017-.13.05-.058.022-.13.047a3.433 3.433 0 0 1-.07.024l-.065.021a2.71 2.71 0 0 1-.123.04l-.132.04-.055.016-.132.037-.052.014-.133.034a3.11 3.11 0 0 1-.063.015l-.135.03c-.017.005-.034.008-.052.011l-.133.028-.075.014-.064.011c-.04.008-.082.016-.124.022l-.134.02-.064.01-.136.017a2.011 2.011 0 0 1-.056.006l-.064.007c-.042.006-.084.01-.126.013l-.136.012a3.045 3.045 0 0 1-.079.005l-.064.003a2.26 2.26 0 0 1-.126.007l-.138.004-.04.001-.137.002h-.073l-.136-.002h-.041l-.137-.005c-.042 0-.084-.003-.126-.007l-.064-.003-.077-.005-.137-.011a2.852 2.852 0 0 1-.128-.014l-.064-.007a1.632 1.632 0 0 1-.058-.007l-.136-.017-.06-.009-.135-.02a2.383 2.383 0 0 1-.12-.021l-.066-.011-.077-.015-.133-.027a1.862 1.862 0 0 1-.058-.013l-.133-.03-.054-.014-.134-.033a8.862 8.862 0 0 1-.055-.015l-.133-.037-.056-.016-.132-.04a2.131 2.131 0 0 1-.13-.042l-.064-.021a2.237 2.237 0 0 1-.063-.022l-.13-.047a2.188 2.188 0 0 1-.06-.023l-.128-.05-.035-.013-.128-.052a2.4 2.4 0 0 1-.138-.06l-.064-.029-.053-.024-.126-.06-.066-.032-.124-.063-.04-.02-.122-.065a1.954 1.954 0 0 1-.072-.04l-.121-.068a2.036 2.036 0 0 1-.048-.03l-.12-.071-.05-.03-.118-.075-.056-.037-.118-.078a2.24 2.24 0 0 1-.052-.036l-.115-.081-.048-.035-.115-.085a2.088 2.088 0 0 1-.063-.048l-.112-.09-.038-.03-.11-.09-.05-.043-.109-.094-.057-.05-.106-.099-.046-.044-.105-.102-12.072-11.95a8.08 8.08 0 0 1 0-11.493 8.195 8.195 0 0 1 5.804-2.373c2.196 0 4.257.843 5.803 2.373l6.25 6.189 26.341-26.08a8.194 8.194 0 0 1 5.804-2.373zm2.233 5.909a3.15 3.15 0 0 0-2.233-.91 3.15 3.15 0 0 0-2.232.91L42.24 62.658a2.54 2.54 0 0 1-3.57 0l-8.036-7.957a3.152 3.152 0 0 0-2.233-.908 3.15 3.15 0 0 0-2.233.908 3.11 3.11 0 0 0 0 4.422L38.343 71.17l.437.325.474.24.248.088h.002l.435.101.018.004.218.026.014.002.126.007.016.001.045.001.08.001.125-.002.016-.001.123-.007.016-.002.219-.026.016-.003.436-.101.008-.003.283-.103.004-.001.426-.22.3-.21.009-.007.234-.207.017-.016 32.145-31.826a3.108 3.108 0 0 0 0-4.42z"/><linearGradient id="k1tkb" x1="101" x2="0" y1="60" y2="60" gradientUnits="userSpaceOnUse"><stop offset="0" stop-color="#6289f2"/><stop offset="1" stop-color="#2753c9"/></linearGradient></defs><g><g><use xlink:href="#k1tka"/><use fill="url(#k1tkb)" xlink:href="#k1tka"/></g></g></svg>