<svg xmlns="http://www.w3.org/2000/svg" xmlns:xlink="http://www.w3.org/1999/xlink" width="100" height="125" viewBox="0 0 100 125"><defs><path id="vxwna" d="M613.05 1547.057v-38.907c0-4.072-3.332-7.385-7.426-7.385h-15.347L590 1506h13c2.73 0 5 1.286 5 4v86c0 2.714-2.27 5-5 5h-71c-2.73 0-4-1.285-4-4v-86c0-2.714 2.27-5 5-5h12l.723-5.235h-15.347c-4.094 0-7.426 3.313-7.426 7.385v90.546c0 4.07 3.332 7.383 7.426 7.383h75.248c4.094 0 7.425-3.313 7.425-7.383v-31.008a2.469 2.469 0 0 1 2.476-2.462 2.469 2.469 0 0 1 2.475 2.462v31.008c0 6.784-5.552 12.304-12.376 12.304h-75.248c-6.824 0-12.376-5.52-12.376-12.304v-90.546c0-6.786 5.176-12.15 12-12.15h17c1.235-1.571 3.311-2.74 5.468-2.74h4.026c1.97-4.354 6.372-7.26 11.289-7.26h.434c4.917 0 9.319 2.906 11.289 7.26h4.026c2.157 0 4.232 1.169 5.468 2.74h17c6.824 0 12 5.364 12 12.15v38.907c0 1.36-1.108 2.46-2.475 2.46a2.467 2.467 0 0 1-2.476-2.46zM551 1506h34l.327-6.035c0-.983-.805-1.784-1.795-1.784h-5.761a2.472 2.472 0 0 1-2.39-1.816c-.874-3.205-3.82-5.442-7.164-5.442h-.434c-3.344 0-6.29 2.237-7.165 5.442a2.471 2.471 0 0 1-2.389 1.816h-5.761c-.99 0-1.795.8-1.795 1.784zm-9 5v13c0 1.36-.356 4.328-1.723 4.328S537 1526.36 537 1525V1511h-4v85h70c.002 0 0 0 0 0v-85zm54.713 54.464c0 5.7-4.664 10.336-10.396 10.336-5.733 0-10.396-4.636-10.396-10.336 0-4.85 3.38-8.93 7.92-10.037v-3.521h-31.683v3.521c4.541 1.108 7.921 5.187 7.921 10.037 0 5.7-4.663 10.336-10.396 10.336-5.732 0-10.396-4.636-10.396-10.336 0-4.85 3.38-8.93 7.92-10.037v-5.982a2.469 2.469 0 0 1 2.476-2.46h15.842v-4.793c-5.367-1.135-9.406-5.883-9.406-11.553 0-6.514 5.33-11.812 11.881-11.812s11.881 5.298 11.881 11.812c0 5.67-4.039 10.418-9.406 11.553v4.792h15.842a2.469 2.469 0 0 1 2.475 2.461v5.982c4.54 1.108 7.92 5.187 7.92 10.037zm-47.03-5.413c-3.003 0-5.445 2.428-5.445 5.413 0 2.986 2.442 5.414 5.445 5.414s5.446-2.428 5.446-5.414c0-2.985-2.443-5.413-5.446-5.413zM568 1537.53c3.822 0 6.93-3.092 6.93-6.89 0-3.8-3.108-6.893-6.93-6.893-3.821 0-6.93 3.092-6.93 6.892 0 3.8 3.109 6.89 6.93 6.89zm23.762 27.934c0-2.985-2.442-5.413-5.445-5.413s-5.446 2.428-5.446 5.413c0 2.986 2.443 5.414 5.446 5.414 3.003 0 5.445-2.428 5.445-5.414zm-9.487 20.943c0 .645-.265 1.282-.726 1.74a2.502 2.502 0 0 1-1.75.72c-.653 0-1.29-.263-1.75-.72a2.462 2.462 0 0 1-.725-1.74c0-.648.263-1.283.726-1.74a2.494 2.494 0 0 1 1.75-.722c.65 0 1.29.263 1.75.721.46.458.725 1.093.725 1.741zm-11.394 0c0 .645-.265 1.282-.725 1.74-.46.457-1.1.72-1.75.72-.651 0-1.29-.263-1.75-.72a2.472 2.472 0 0 1-.725-1.74c0-.648.265-1.283.725-1.74a2.494 2.494 0 0 1 1.75-.722c.65 0 1.29.263 1.75.721.46.458.725 1.093.725 1.741zm-11.502 0c0 .645-.265 1.282-.726 1.74a2.502 2.502 0 0 1-1.75.72c-.653 0-1.29-.263-1.75-.72a2.462 2.462 0 0 1-.725-1.74c0-.648.263-1.283.725-1.74a2.49 2.49 0 0 1 1.75-.722c.651 0 1.29.263 1.75.721.46.458.726 1.093.726 1.741zm58.62-28.818c0 .647-.264 1.282-.724 1.741a2.492 2.492 0 0 1-3.5 0 2.471 2.471 0 0 1-.726-1.741c0-.647.265-1.282.726-1.74a2.504 2.504 0 0 1 1.75-.722c.65 0 1.29.264 1.75.721.46.461.725 1.094.725 1.74zm-75.247-21.632c0 .648-.265 1.283-.725 1.74a2.5 2.5 0 0 1-1.75.72 2.5 2.5 0 0 1-1.75-.72 2.472 2.472 0 0 1-.725-1.74c0-.647.265-1.283.725-1.74a2.501 2.501 0 0 1 1.75-.72 2.5 2.5 0 0 1 1.75.72 2.47 2.47 0 0 1 .725 1.74z"/><linearGradient id="vxwnb" x1="518" x2="618" y1="1567" y2="1530" gradientUnits="userSpaceOnUse"><stop offset="0" stop-color="#648bf3" stop-opacity="0"/><stop offset="1" stop-color="#648bf3"/></linearGradient></defs><g><g transform="translate(-518 -1486)"><use fill="#2753c9" xlink:href="#vxwna"/><use fill="url(#vxwnb)" xlink:href="#vxwna"/></g></g></svg>