<svg xmlns="http://www.w3.org/2000/svg" xmlns:xlink="http://www.w3.org/1999/xlink" width="32" height="32" viewBox="0 0 32 32"><defs><path id="ludya" d="M807 226.999a2 2 0 1 1 4 .001 2 2 0 0 1-4-.001zm-18 0a2 2 0 1 1 4 0 2 2 0 0 1-4 0zm27-11v4.002c0 .553-.447.999-1 .999v10a2 2 0 0 1-2 2v3a1 1 0 0 1-1 1.001h-4a1 1 0 0 1-1-1v-3h-14v3a1 1 0 0 1-1 1h-4a1 1 0 0 1-1-1v-3a2 2 0 0 1-2-2V221c-.553 0-1-.446-1-1V216a1 1 0 0 1 1-1v-4a6 6 0 0 1 6-5.998h18a6 6 0 0 1 6 5.999v4a1 1 0 0 1 1 .999zm-28.445-7h24.89c-.693-1.19-1.968-1.998-3.445-1.998h-18c-1.477 0-2.752.808-3.445 1.999zM787 221h12v-10h-12zM791 233h-2v2h2zm20 0h-2v2h2zm2-10h-26v7a1 1 0 0 0 1 1h24a1 1 0 0 0 1-1zm0-12h-12v10h12z"/></defs><g><g transform="translate(-784 -205)"><use fill="#fff" xlink:href="#ludya"/></g></g></svg>