<svg xmlns="http://www.w3.org/2000/svg" xmlns:xlink="http://www.w3.org/1999/xlink" width="32" height="28" viewBox="0 0 32 28"><defs><path id="pun0a" d="M978 624v20a2 2 0 0 1-2 2h-28a2 2 0 0 1-2-2v-20c0-1.105.894-2 2-2h4v-3a1 1 0 0 1 1-1h4a1 1 0 0 1 1 1v3h8v-3a1 1 0 0 1 1-1h4c.553 0 1 .447 1 1v3h4c1.106 0 2 .895 2 2zm-10 0h2v-4h-2zm-14 0h2v-4h-2zm22 1a1 1 0 0 0-1-1h-3v1c0 .552-.447 1-1 1h-4c-.553 0-1-.448-1-1v-1h-8v1a1 1 0 0 1-1 1h-4c-.553 0-1-.448-1-1v-1h-3a1 1 0 0 0-1 1v18a1 1 0 0 0 1 1h26a1 1 0 0 0 1-1zm-10 7a1 1 0 0 1 1-1h2a1 1 0 1 1 0 2h-2a1 1 0 0 1-1-1zm6 4a1 1 0 0 1-1 1h-4a1 1 0 1 1 0-2h4c.553 0 1 .446 1 1zm-9.052 2.683a1 1 0 1 1-1.896.633c-.032-.086-.865-2.315-4.052-2.315-3.242 0-4.044 2.292-4.052 2.315a1 1 0 1 1-1.896-.633c.04-.123.87-2.497 3.712-3.366a4 4 0 1 1 4.473 0c2.841.869 3.67 3.243 3.711 3.366zM955 632a2 2 0 1 0 4-.001 2 2 0 0 0-4 .001z"/></defs><g><g transform="translate(-946 -618)"><use fill="#fff" xlink:href="#pun0a"/></g></g></svg>