<svg xmlns="http://www.w3.org/2000/svg" xmlns:xlink="http://www.w3.org/1999/xlink" width="67" height="55" viewBox="0 0 67 55"><defs><path id="keqia" d="M1009.521 1135.444l-1.537 6.665a1.15 1.15 0 0 1-1.121.891h-39.711a1.151 1.151 0 0 1-1.121-1.407l3.992-17.31-3.992-17.308c-.04-.17-.04-.346 0-.516l4.051-17.568a1.15 1.15 0 0 1 1.121-.89h39.711a1.146 1.146 0 0 1 1.121 1.407l-3.991 17.307 1.841 7.988a1.15 1.15 0 1 1-2.242.516l-1.696-7.354h-37.35l3.522 15.269h28.454a1.15 1.15 0 1 1 0 2.298H972.12l-3.522 15.27h37.35l1.332-5.774a1.148 1.148 0 0 1 1.38-.86c.618.14 1.005.758.862 1.376zm-40.924-29.876h37.35l3.522-15.27h-37.35zm5.917-10.392c0-.636.515-1.15 1.15-1.15h19.788a1.15 1.15 0 1 1 0 2.298h-19.787a1.15 1.15 0 0 1-1.15-1.148zm-2.07 5.513a1.15 1.15 0 0 1 1.15-1.148h19.788a1.15 1.15 0 1 1 0 2.296h-19.788c-.635 0-1.15-.513-1.15-1.148zm23.008 30.77h-19.787a1.15 1.15 0 1 1 0-2.299h19.787a1.15 1.15 0 1 1 0 2.299zm-2.07 3.216a1.15 1.15 0 1 1 0 2.299h-19.788a1.15 1.15 0 1 1 0-2.299zm0-20.783h-19.788a1.15 1.15 0 1 1 0-2.299h19.787a1.15 1.15 0 1 1 0 2.299zm-18.868 4.365c0-.635.515-1.148 1.15-1.148h19.788a1.149 1.149 0 1 1 0 2.298h-19.787a1.15 1.15 0 0 1-1.15-1.15zm24.182-23.138a1.15 1.15 0 1 1 2.256-.452l.069.343 2.413-2.126a1.15 1.15 0 1 1 1.523 1.723l-3.912 3.446c-.213.19-.485.287-.761.287a1.152 1.152 0 0 1-1.128-.923zm.745 20.618l-1.46-1.834a1.148 1.148 0 0 1 .185-1.615 1.152 1.152 0 0 1 1.617.184l.217.274 1.175-2.994a1.15 1.15 0 0 1 2.142.84l-1.904 4.85a1.15 1.15 0 0 1-1.972.295zm-.433 4.091a1.148 1.148 0 0 1 .184-1.614 1.152 1.152 0 0 1 1.617.185l.217.273 1.175-2.994a1.15 1.15 0 0 1 2.142.84l-1.903 4.85a1.15 1.15 0 0 1-1.972.295zm33.625-8.781l-21.983 20.595a1.162 1.162 0 0 1-.5.275l-8.638 2.222a1.147 1.147 0 0 1-1.126-.328 1.144 1.144 0 0 1-.254-1.141l2.772-8.468c.06-.185.165-.349.306-.481l21.983-20.595a1.152 1.152 0 0 1 1.626.051l5.866 6.245a1.15 1.15 0 0 1-.052 1.625zm-24.938 19.127l-3.208-3.415-1.516 4.632zm22.525-20.017l-4.292-4.569-20.305 19.022 4.292 4.57z"/><linearGradient id="keqib" x1="972" x2="1027" y1="1143" y2="1088" gradientUnits="userSpaceOnUse"><stop offset="0" stop-color="#3a54c4"/><stop offset="1" stop-color="#afc0fd"/></linearGradient></defs><g><g transform="translate(-966 -1088)"><use xlink:href="#keqia"/><use fill="url(#keqib)" xlink:href="#keqia"/></g></g></svg>