<svg xmlns="http://www.w3.org/2000/svg" xmlns:xlink="http://www.w3.org/1999/xlink" width="32" height="24" viewBox="0 0 32 24"><defs><path id="e8gca" d="M1211.9 158.363c-.045.117-4.661 11.637-15.923 11.637-11.263 0-15.88-11.52-15.924-11.637a1.003 1.003 0 0 1 0-.726c.045-.116 4.661-11.636 15.924-11.636 11.262 0 15.878 11.52 15.923 11.636.091.234.091.492 0 .726zm-2.016-.362c-.83-1.867-4.97-10-13.907-10-8.938 0-13.077 8.133-13.908 10 .831 1.864 4.97 9.998 13.908 9.998 8.938 0 13.076-8.134 13.907-9.998zm-7.91 0c0 3.312-2.686 5.999-5.997 5.999a5.999 5.999 0 0 1-5.997-6 6 6 0 0 1 5.997-6 6 6 0 0 1 5.997 6zm-2 0a4 4 0 1 0-3.997 3.999 3.999 3.999 0 0 0 3.998-4z"/></defs><g><g transform="translate(-1180 -146)"><use fill="#fff" xlink:href="#e8gca"/></g></g></svg>