<svg xmlns="http://www.w3.org/2000/svg" xmlns:xlink="http://www.w3.org/1999/xlink" width="32" height="32" viewBox="0 0 32 32"><defs><path id="nw7sa" d="M1632 561v26a4 4 0 0 1-4 3.999h-24a4 4 0 0 1-4-4v-10.998c0-1.107.895-2 2-2h4v-13c0-1.106.894-2 2-2h22c1.105 0 2 .894 2 2zm-28 28a2 2 0 0 0 2-2v-11h-3c-.553 0-1 .447-1 1v10a2 2 0 0 0 2 2zm26-2v-25c0-.553-.447-1-1-1h-20c-.553 0-1 .447-1 1v25c0 .733-.211 1.41-.555 2H1628a2 2 0 0 0 2-2zm-4-12a1 1 0 0 1-1 1h-12a1 1 0 1 1 0-2h12a1 1 0 0 1 1 1zm0 4a1 1 0 0 1-1 1h-12a1 1 0 1 1 0-2h12a1 1 0 0 1 1 1zm0 4a1 1 0 0 1-1 1h-12a1 1 0 1 1 0-1.999h12c.553 0 1 .446 1 .999zm0-12a1 1 0 0 1-1 1h-12a1 1 0 1 1 0-2h12a1 1 0 0 1 1 1zm-14-4a1 1 0 0 1 1-1h6a1 1 0 1 1 0 2h-6a1 1 0 0 1-1-1z"/></defs><g><g transform="translate(-1600 -559)"><use fill="#fff" xlink:href="#nw7sa"/></g></g></svg>