<svg xmlns="http://www.w3.org/2000/svg" xmlns:xlink="http://www.w3.org/1999/xlink" width="32" height="32" viewBox="0 0 32 32"><defs><path id="snaoa" d="M429 609V623a.999.999 0 0 1-1.316.948l-4.684-1.56V625c0 1.106-.894 1.999-2 1.999h-22c-1.105 0-2-.893-2-2V607c0-1.106.895-2 2-2h1.536a5.973 5.973 0 0 1-1.536-4 6 6 0 0 1 11-3.314A6 6 0 0 1 421 601a5.974 5.974 0 0 1-1.536 4H421c1.106 0 2 .894 2 2v2.61l4.684-1.558A1 1 0 0 1 429 609zm-18-8a4 4 0 1 0 8 0 4 4 0 0 0-8 0zm-1 3.315c-.161.24-.343.47-.536.685h1.072a6.195 6.195 0 0 1-.536-.685zm-5 .685a4 4 0 1 0 0-8 4 4 0 0 0 0 8zm16 3a1 1 0 0 0-1-1h-20a1 1 0 0 0-1 1v16c0 .554.447 1 1 1h20c.553 0 1-.446 1-1zm6 2.387l-4 1.332v8.559l4 1.333z"/></defs><g><g transform="translate(-397 -595)"><use fill="#fff" xlink:href="#snaoa"/></g></g></svg>