<?xml version="1.0" standalone="no"?>
<!DOCTYPE svg PUBLIC "-//W3C//DTD SVG 20010904//EN"
 "http://www.w3.org/TR/2001/REC-SVG-20010904/DTD/svg10.dtd">
<svg version="1.0" xmlns="http://www.w3.org/2000/svg"
 width="840.000000pt" height="971.000000pt" viewBox="0 0 840.000000 971.000000"
 preserveAspectRatio="xMidYMid meet">

<g transform="translate(0.000000,971.000000) scale(0.100000,-0.100000)"
fill="#000000" stroke="none">
<path d="M317 9693 c-18 -17 -3 -46 38 -75 25 -17 43 -33 42 -34 -2 -2 -54 1
-117 6 -269 22 -312 11 -229 -61 128 -112 287 -208 399 -243 30 -10 62 -20 70
-23 9 -3 -4 -11 -31 -19 -53 -16 -73 -35 -65 -62 12 -36 242 -185 352 -227
l48 -18 -59 -21 c-65 -23 -86 -46 -69 -73 28 -47 373 -223 436 -223 38 0 6
-19 -72 -43 -41 -13 -78 -30 -84 -40 -13 -22 -15 -21 132 -114 l104 -66 -103
-31 c-117 -35 -139 -55 -99 -87 40 -34 109 -71 172 -94 l59 -22 -65 -38 c-75
-44 -111 -78 -103 -98 3 -8 43 -27 89 -42 46 -15 86 -30 91 -32 4 -2 -21 -23
-55 -46 -35 -23 -63 -49 -63 -57 0 -25 65 -48 165 -60 52 -6 110 -14 129 -17
l34 -4 -49 -29 c-27 -16 -83 -60 -124 -99 -64 -59 -73 -72 -64 -88 17 -28 90
-45 201 -46 l102 -2 -16 -25 c-9 -14 -26 -39 -39 -57 -28 -37 -31 -68 -8 -77
34 -13 121 -17 162 -8 23 5 42 8 42 6 0 -3 -11 -21 -25 -42 -55 -83 -61 -152
-15 -152 24 0 24 5 4 -90 -8 -43 -14 -97 -12 -121 l3 -43 105 -63 c75 -44 115
-62 140 -63 56 0 218 37 254 58 l33 20 6 -79 c7 -86 27 -146 53 -156 9 -3 30
-1 45 4 34 13 35 10 9 -27 -36 -50 -71 -141 -100 -255 -16 -60 -35 -114 -43
-119 -10 -6 -41 -1 -96 18 -116 38 -225 51 -307 37 -118 -21 -235 -89 -302
-177 -35 -44 -72 -144 -72 -192 0 -23 -9 -31 -55 -51 -89 -38 -140 -76 -183
-133 -27 -37 -71 -74 -143 -123 -144 -97 -178 -156 -127 -220 17 -22 21 -39
19 -82 -2 -63 13 -94 61 -123 30 -18 31 -21 29 -79 -4 -109 52 -166 165 -166
53 0 68 4 106 32 52 37 85 47 117 35 22 -8 21 -9 -21 -37 -23 -16 -74 -54
-112 -84 -64 -51 -74 -56 -130 -61 -47 -4 -62 -9 -64 -22 -2 -13 10 -21 49
-32 29 -9 64 -16 78 -16 44 0 10 -17 -88 -44 -102 -28 -117 -36 -108 -60 10
-25 133 -21 251 8 l99 24 -34 -26 c-134 -105 -210 -208 -165 -225 8 -3 56 21
108 54 84 54 134 78 142 68 2 -2 -2 -35 -8 -74 l-12 -70 -78 -66 c-43 -36 -87
-81 -97 -100 -20 -37 -25 -99 -9 -99 6 0 -1 -17 -15 -37 -39 -58 -31 -107 15
-83 18 10 19 8 10 -14 -31 -83 -16 -235 33 -332 14 -28 56 -78 94 -114 l69
-65 19 -101 c20 -113 16 -136 -37 -233 -31 -57 -31 -81 1 -81 43 0 183 52 224
84 l44 33 22 -67 c56 -174 221 -353 488 -527 62 -40 125 -89 140 -109 15 -20
59 -75 96 -121 39 -49 66 -91 63 -99 -3 -8 -69 -109 -147 -225 -129 -193 -143
-210 -156 -193 -39 54 -50 172 -27 299 28 147 25 227 -9 296 -15 31 -50 79
-78 107 -46 46 -83 68 -241 141 -57 27 -68 53 -68 166 0 53 -5 88 -14 100 -13
18 -15 18 -39 2 -29 -19 -72 -87 -83 -130 -13 -54 -24 -5 -24 109 0 114 -6
134 -42 134 -14 0 -30 -22 -56 -77 -35 -74 -37 -83 -36 -178 0 -118 11 -146
105 -286 127 -189 137 -242 95 -516 -14 -95 -26 -208 -26 -252 0 -139 48 -247
162 -365 44 -45 48 -53 37 -71 -6 -11 -91 -132 -189 -270 -97 -137 -191 -271
-208 -297 -72 -106 -80 -133 -123 -408 -22 -144 -37 -270 -34 -281 4 -12 16
-19 30 -19 28 0 472 204 497 229 9 9 127 187 263 396 136 209 253 386 260 394
11 11 30 9 121 -12 163 -39 271 -50 428 -44 218 8 304 38 653 227 l111 61 225
-156 c124 -86 269 -192 322 -236 l97 -81 56 54 c80 76 284 244 418 345 l113
85 113 -60 c62 -32 157 -83 211 -111 115 -62 232 -104 339 -121 120 -20 345
-8 507 25 87 18 136 24 140 17 3 -5 121 -186 261 -401 l254 -390 238 -111
c141 -66 246 -110 260 -108 18 2 24 10 26 39 4 46 -64 484 -83 538 -19 54 -65
125 -287 437 l-185 261 58 55 c168 163 196 284 143 625 -41 270 -31 324 95
512 34 51 71 113 82 139 26 61 35 162 20 234 -17 78 -67 178 -91 178 -26 0
-30 -19 -31 -138 -1 -59 -4 -118 -8 -132 -6 -21 -9 -17 -29 36 -23 63 -83 139
-104 132 -9 -3 -15 -37 -18 -109 -5 -110 -14 -138 -52 -156 -13 -7 -66 -32
-118 -56 -109 -52 -176 -112 -216 -193 -37 -75 -40 -139 -14 -279 16 -87 20
-138 16 -184 -7 -65 -38 -152 -60 -170 -15 -13 -17 -10 -192 251 l-133 200 62
76 c34 43 78 99 97 126 26 35 72 73 170 139 100 68 164 121 250 206 123 124
175 200 211 309 l21 64 27 -26 c33 -32 120 -71 194 -87 80 -17 86 -5 40 83
-45 85 -50 138 -25 251 17 72 25 91 48 109 125 95 169 184 169 348 0 58 -4
116 -9 130 -8 22 -7 23 7 11 21 -17 47 -8 47 16 0 10 -11 36 -24 57 -18 31
-21 44 -13 57 27 43 -30 127 -151 220 -33 25 -39 40 -56 142 -6 32 -4 37 12
37 11 0 65 -30 121 -67 92 -59 104 -64 118 -51 13 14 13 19 -2 48 -18 36 -98
119 -160 167 l-40 32 75 -21 c96 -25 259 -36 270 -18 16 26 -3 38 -101 65 -55
15 -101 31 -104 35 -2 3 24 12 57 18 103 19 119 62 24 62 -49 0 -60 5 -116 48
-34 26 -88 66 -120 88 l-58 42 30 6 c31 6 63 -6 133 -49 71 -44 170 -24 229
46 26 31 28 38 24 99 -5 65 -4 67 23 79 45 20 73 74 65 127 -5 36 -1 50 19 80
29 43 30 55 9 99 -18 38 -57 71 -171 144 -61 39 -89 64 -108 97 -29 49 -111
110 -189 139 -42 16 -43 17 -55 83 -24 129 -102 225 -235 288 -133 63 -269 66
-437 9 l-69 -23 -6 26 c-36 161 -70 252 -124 334 l-38 58 28 -15 c16 -8 43
-15 60 -15 26 0 33 6 47 38 8 20 18 74 21 119 l5 82 26 -19 c35 -25 119 -48
214 -58 l77 -8 110 64 110 64 0 48 c0 27 -7 81 -15 121 -9 40 -14 73 -13 73 2
1 15 7 31 14 15 6 27 19 27 29 0 22 -33 95 -59 132 l-19 27 91 -4 c81 -4 95
-2 117 16 l24 20 -42 60 c-23 33 -42 63 -42 66 0 3 39 6 88 6 95 0 186 20 211
45 15 15 10 22 -54 81 -38 36 -96 82 -127 103 l-57 38 82 7 c45 4 113 13 151
21 118 25 124 48 30 108 l-65 42 93 31 c75 25 94 35 96 52 3 22 -46 65 -120
103 -41 21 -50 39 -19 39 23 0 167 72 199 100 48 40 21 60 -141 105 l-57 16
72 48 c40 26 95 60 121 75 37 22 47 34 45 50 -2 17 -20 26 -92 50 l-90 28 80
27 c88 30 179 75 299 149 71 42 80 52 80 77 0 30 -13 38 -110 70 -17 6 -15 9
15 20 95 34 300 156 348 208 34 37 25 59 -34 82 l-51 21 61 18 c115 34 221 94
374 214 81 64 99 93 65 106 -9 4 -90 2 -179 -5 -89 -6 -168 -9 -175 -7 -7 2 4
14 24 27 49 30 64 58 44 79 -14 14 -31 13 -165 -1 -197 -22 -285 -46 -413
-111 -87 -45 -126 -59 -218 -76 -328 -62 -665 -210 -1019 -449 -214 -144 -378
-291 -442 -397 -31 -52 -35 -66 -35 -130 0 -71 0 -73 59 -158 69 -101 77 -139
51 -256 -8 -41 -19 -115 -22 -163 l-6 -89 -26 6 c-47 11 -275 17 -320 9 l-45
-8 -22 -105 c-12 -58 -21 -106 -20 -106 0 -1 51 -7 111 -13 61 -7 114 -16 118
-21 10 -9 -92 -33 -218 -50 -49 -7 -101 -17 -114 -21 -20 -8 -22 -7 -16 8 3
10 17 60 31 112 49 189 49 408 1 601 l-24 94 25 55 c41 91 42 215 1 486 -29
191 -33 245 -33 410 0 136 5 209 16 257 13 57 13 69 2 79 -11 9 -20 4 -44 -21
-41 -44 -207 -277 -343 -481 l-110 -166 -91 48 c-347 182 -758 186 -1101 10
-49 -25 -93 -47 -96 -49 -4 -2 -50 61 -102 140 -108 164 -319 462 -350 496
-24 26 -57 29 -57 5 0 -9 7 -55 16 -102 24 -129 15 -379 -25 -645 -37 -248
-39 -348 -9 -426 26 -70 26 -97 0 -193 -50 -183 -49 -410 2 -602 13 -49 23
-91 22 -92 -7 -8 -247 31 -306 49 -34 11 -34 11 -10 20 14 5 69 12 123 15 94
6 98 7 93 27 -3 12 -14 60 -23 108 l-17 88 -35 7 c-31 7 -189 7 -316 0 l-40
-2 -6 80 c-4 44 -14 122 -23 173 -10 51 -14 108 -11 125 4 18 31 69 62 113 30
45 59 99 63 120 33 147 -131 337 -511 592 -336 225 -708 383 -1018 432 -56 9
-100 26 -176 66 -56 29 -135 62 -176 73 -126 35 -394 63 -412 44z m7688 -69
c-60 -48 -192 -84 -360 -99 -38 -4 -87 -11 -109 -16 -61 -16 -53 -3 21 35 101
51 288 93 418 95 47 0 49 0 30 -15z m-7685 -79 c178 -14 360 -42 360 -56 0
-13 -125 -17 -219 -8 -53 6 -135 19 -183 30 -108 23 -108 23 -108 -1 0 -13 9
-22 28 -26 15 -3 44 -10 65 -16 97 -24 211 -38 310 -38 l107 0 0 -75 0 -76
-37 6 c-213 37 -328 88 -507 229 -71 55 -85 53 184 31z m7963 -24 c-9 -11 -20
-18 -25 -15 -4 3 -8 0 -8 -7 0 -8 -5 -6 -12 4 -12 16 -21 15 -128 -8 -131 -29
-323 -41 -415 -27 -46 7 -52 10 -25 11 19 1 71 9 115 17 71 14 339 38 467 42
46 2 47 1 31 -17z m-889 -75 c-63 -42 -92 -50 -276 -76 -81 -11 -159 -25 -174
-30 -15 -6 -29 -9 -31 -6 -10 9 250 86 373 111 70 14 130 28 133 30 2 3 9 5
15 5 6 0 -12 -15 -40 -34z m221 -17 c93 -16 405 -19 405 -5 0 6 5 4 10 -4 5
-8 10 -10 10 -3 0 6 8 10 18 9 9 -2 20 1 23 6 3 5 9 2 12 -7 5 -11 3 -14 -5
-9 -8 5 -9 1 -5 -12 7 -18 7 -18 -8 0 -8 11 -15 14 -15 7 0 -7 -5 -9 -12 -5
-7 5 -9 2 -5 -9 4 -12 1 -15 -14 -12 -15 3 -19 0 -15 -11 3 -9 2 -12 -5 -9 -6
4 -8 13 -6 19 3 7 -1 13 -9 13 -9 0 -13 -6 -10 -14 4 -9 2 -11 -7 -6 -22 14
-36 12 -30 -5 4 -10 2 -13 -5 -8 -7 4 -10 2 -6 -7 3 -8 -1 -14 -10 -14 -8 0
-12 7 -9 16 3 10 2 12 -4 5 -4 -6 -16 -10 -25 -9 -11 2 -15 -2 -11 -12 4 -10
8 -11 13 -3 5 8 9 7 13 -5 4 -9 3 -13 -3 -10 -6 3 -10 1 -10 -6 0 -7 -7 -4
-16 7 -14 17 -15 17 -10 1 4 -12 2 -16 -6 -11 -7 5 -9 2 -5 -8 4 -11 0 -15
-11 -13 -9 1 -21 -3 -25 -9 -6 -7 -7 -5 -4 5 3 9 -1 16 -9 16 -9 0 -13 -6 -10
-14 3 -8 2 -12 -3 -8 -5 3 -12 -1 -15 -7 -3 -7 -3 -3 -1 9 3 12 1 24 -4 28 -7
4 -8 -1 -4 -11 4 -12 3 -15 -5 -10 -8 4 -10 2 -6 -8 6 -16 -11 -17 -35 -2 -10
6 -12 5 -7 -2 4 -7 4 -12 -1 -13 -4 -1 -19 -3 -33 -4 -48 -7 -275 -24 -320
-25 l-44 0 42 43 c46 47 50 58 27 77 -13 11 -11 16 21 38 61 41 88 52 114 47
14 -2 57 -10 95 -16z m525 11 c5 8 9 7 13 -5 4 -9 3 -13 -3 -10 -6 3 -10 0
-10 -7 0 -9 -3 -9 -10 2 -5 8 -9 20 -9 25 0 6 3 4 6 -4 4 -10 7 -10 13 -1z
m-166 -76 c4 -10 2 -13 -6 -8 -8 5 -9 1 -4 -12 5 -14 4 -16 -4 -8 -6 6 -8 18
-4 27 8 21 10 21 18 1z m-6874 -28 c0 -11 -19 -15 -25 -6 -3 5 1 10 9 10 9 0
16 -2 16 -4z m268 -12 c39 -5 42 -8 42 -35 0 -21 -5 -29 -17 -29 -23 0 -185
44 -238 64 -39 15 -37 15 65 10 58 -3 124 -7 148 -10z m5812 -35 c-99 -34
-229 -59 -309 -59 -51 1 -54 2 -37 15 55 41 202 71 361 73 l70 0 -85 -29z
m-370 -5 c-63 -35 -125 -97 -176 -176 -37 -56 -51 -69 -91 -84 -107 -38 -132
-53 -147 -83 -20 -38 -20 -58 -1 -95 9 -16 13 -31 11 -33 -2 -3 -34 -8 -70
-13 -137 -17 -176 -82 -125 -212 25 -65 22 -62 -91 87 l-90 120 52 47 c117
108 395 288 608 395 143 71 208 97 120 47z m-5441 -70 l41 -7 0 -54 c0 -52 -1
-54 -22 -47 -65 20 -136 65 -222 141 l-47 41 104 -34 c58 -18 123 -36 146 -40z
m1918 -95 c192 -251 198 -265 38 -85 -96 109 -146 174 -158 209 -16 44 24 3
120 -124z m1922 79 c-28 -40 -182 -220 -206 -239 -9 -8 37 57 103 143 66 88
120 151 122 143 2 -8 -7 -30 -19 -47z m2041 48 c-55 -51 -144 -114 -196 -138
l-60 -28 -143 15 c-79 8 -147 15 -153 15 -5 0 2 15 17 33 l25 34 123 6 c128 7
221 23 322 55 74 25 83 26 65 8z m-6450 -26 c52 -5 105 -10 118 -10 19 0 22
-5 22 -40 l0 -40 -64 0 c-88 0 -205 17 -270 40 -48 16 -55 17 -60 3 -3 -8 -4
-19 -1 -24 16 -25 239 -69 352 -69 l43 0 0 -55 0 -55 -32 0 c-50 0 -105 18
-193 62 -88 44 -245 145 -245 157 0 8 41 21 125 40 22 5 56 7 75 5 19 -2 78
-9 130 -14z m1234 -152 c243 -154 467 -350 515 -451 36 -74 27 -139 -28 -212
-53 -70 -80 -130 -81 -175 0 -20 9 -86 20 -148 12 -62 20 -137 18 -168 l-3
-56 -80 -29 c-44 -16 -81 -29 -82 -29 -2 0 -3 49 -3 110 l0 110 -35 39 c-68
75 -118 231 -118 371 -1 68 5 100 26 159 15 41 27 87 27 102 0 73 -56 116
-164 126 l-64 6 19 31 c45 73 4 137 -110 174 -88 29 -121 68 -121 145 l0 49
78 -43 c42 -23 126 -73 186 -111z m5795 137 c30 -8 61 -22 70 -31 15 -15 14
-15 -6 -5 -31 16 -37 14 -22 -6 12 -17 12 -17 -4 -2 -16 14 -24 13 -88 -8 -92
-31 -303 -48 -472 -38 l-127 7 42 39 43 38 165 2 c91 0 192 5 225 9 94 11 116
11 174 -5z m-4538 -252 c71 -69 129 -130 129 -135 0 -5 -35 18 -79 51 -129
100 -226 211 -184 211 3 0 63 -57 134 -127z m4194 115 c94 0 179 4 191 7 13 4
25 0 35 -11 13 -16 12 -16 -8 -6 -27 15 -36 15 -28 2 4 -6 -1 -7 -12 -3 -16 6
-17 5 -3 -12 14 -17 14 -18 -10 -5 l-25 13 20 -23 20 -24 -25 17 c-30 21 -53
22 -26 2 24 -18 13 -20 -17 -3 -21 10 -21 10 -7 -7 14 -17 14 -18 -10 -5 l-25
13 19 -22 c19 -21 19 -21 1 -15 -12 5 -16 4 -11 -4 5 -8 2 -10 -9 -5 -12 4
-14 8 -4 13 7 5 2 7 -14 7 -23 -2 -24 -4 -11 -18 13 -15 11 -16 -21 -13 -19 1
-33 -1 -30 -6 8 -12 -42 -10 -172 7 -116 16 -137 23 -113 38 13 8 13 42 0 50
-5 3 -29 10 -52 15 -30 6 -9 7 67 3 61 -3 187 -6 280 -5z m-5865 -34 l0 -37
-57 7 c-101 11 -204 29 -198 34 2 3 58 11 122 17 65 7 121 13 126 14 4 0 7
-15 7 -35z m3631 19 c-18 -34 -162 -163 -246 -223 -11 -7 36 43 105 113 69 70
131 127 138 127 9 0 10 -5 3 -17z m1649 -12 c117 -13 147 -19 120 -24 -115
-22 -248 -37 -340 -37 -102 1 -104 1 -78 17 15 9 32 27 39 40 15 28 41 29 259
4z m-5610 -20 c0 -16 16 -22 113 -39 61 -12 136 -24 165 -28 l52 -7 0 -43 c0
-41 -2 -44 -32 -52 -60 -16 -151 23 -260 113 -59 48 -78 75 -53 75 8 0 15 -8
15 -19z m5751 -58 c-18 -4 -21 -7 -11 -13 9 -6 2 -11 -23 -15 -20 -4 -34 -11
-32 -16 3 -4 -11 -11 -32 -15 -30 -6 -34 -8 -18 -14 15 -6 10 -9 -25 -15 -35
-6 -41 -9 -25 -15 16 -6 12 -9 -21 -14 -29 -5 -66 -1 -125 15 -46 12 -128 29
-182 38 -54 9 -96 21 -95 26 2 6 88 11 208 12 131 1 232 7 280 16 41 8 86 14
100 14 l25 0 -24 -4z m-5749 -30 c27 -24 23 -30 -24 -37 -24 -4 -58 -9 -75
-12 -31 -6 -33 -5 -33 24 0 34 10 39 74 41 24 1 47 -5 58 -16z m1944 -56 c134
-107 173 -141 144 -127 -50 25 -196 130 -229 164 -59 61 -12 41 85 -37z m2018
42 c-31 -33 -122 -100 -194 -143 l-45 -27 30 26 c61 53 220 175 229 175 6 0
-3 -14 -20 -31z m2000 6 c55 -8 139 -19 186 -24 47 -5 116 -20 155 -32 l70
-21 -30 -24 c-54 -43 -307 -164 -351 -168 -23 -2 -47 -7 -54 -11 -9 -6 -9 -3
0 15 11 20 10 21 -9 11 -28 -15 -36 -14 -21 4 15 18 7 19 -23 4 -22 -12 -22
-12 -3 10 21 23 16 27 -15 10 -19 -10 -20 -9 -9 11 11 20 10 21 -9 11 -28 -15
-36 -14 -21 4 15 18 7 19 -23 4 -18 -9 -20 -9 -9 2 19 20 14 31 -8 19 -22 -12
-27 -1 -7 19 10 11 8 11 -10 2 -28 -14 -40 -14 -25 1 19 19 14 30 -10 17 -18
-10 -20 -9 -15 5 6 14 3 16 -14 11 -18 -6 -19 -5 -7 14 20 32 37 33 159 11
124 -23 344 -37 402 -26 27 5 37 12 37 25 0 17 -13 19 -167 24 -100 3 -204 12
-257 22 l-88 18 28 23 c35 28 24 27 148 9z m-2923 -119 c20 -13 18 -14 -22 -9
-24 3 -45 6 -46 7 -1 1 5 18 15 38 l17 35 8 -28 c4 -15 17 -35 28 -43z m-2916
42 c50 -24 58 -38 21 -38 -33 0 -53 -26 -38 -50 13 -21 10 -24 -29 -33 -15 -4
-49 -23 -78 -42 -44 -31 -56 -34 -91 -29 l-40 7 0 82 0 82 98 21 c53 11 100
20 104 21 4 1 28 -9 53 -21z m5274 -29 c85 -22 157 -41 159 -44 13 -13 -14
-17 -105 -18 -124 -1 -242 29 -278 71 -14 15 -25 31 -25 35 0 13 81 -2 249
-44z m-4891 -1 c-2 -25 -9 -34 -28 -39 -34 -9 -179 -11 -221 -2 -30 6 -20 10
91 39 163 42 162 42 158 2z m2370 -4 c2 -1 -11 -4 -27 -6 -27 -4 -29 -2 -20
14 9 16 13 17 27 6 9 -7 18 -13 20 -14z m-946 -33 c110 -64 185 -111 176 -111
-4 0 -44 13 -89 30 -113 41 -199 93 -199 121 0 18 27 8 112 -40z m792 24 c18
-14 18 -15 -9 -25 -33 -13 -36 -11 -28 18 6 26 11 27 37 7z m1260 -6 c-28 -31
-212 -119 -249 -119 -5 0 44 32 110 70 124 72 177 91 139 49z m-757 -49 c16 0
39 7 51 16 21 15 22 14 22 -15 0 -36 40 -71 81 -71 23 0 29 -4 29 -22 0 -12
10 -32 23 -46 l22 -24 -34 -30 -33 -30 -28 49 c-37 65 -123 143 -192 176 -31
15 -63 27 -70 27 -7 1 1 7 17 14 28 12 32 11 57 -16 17 -18 36 -28 55 -28z
m-652 10 c3 -5 18 -10 32 -10 24 0 24 -1 -13 -26 -58 -39 -91 -73 -126 -129
-18 -27 -33 -51 -34 -53 -1 -2 -11 1 -22 7 -32 17 -35 41 -8 62 14 11 26 29
28 42 2 17 12 23 42 28 42 7 76 38 76 70 0 20 15 26 25 9z m343 3 c-10 -2 -26
-2 -35 0 -10 3 -2 5 17 5 19 0 27 -2 18 -5z m197 -32 c131 -46 245 -183 271
-325 l7 -39 -49 8 c-167 25 -312 148 -358 304 -24 82 -23 85 29 78 24 -4 69
-15 100 -26z m2110 13 c28 -9 93 -24 145 -34 52 -10 85 -19 72 -19 -12 -1 -25
-8 -28 -16 -8 -20 -72 -20 -149 0 -87 22 -205 66 -205 76 0 15 112 10 165 -7z
m-4792 -20 c76 5 77 5 77 -18 0 -44 -95 -49 -197 -11 -91 35 -97 44 -21 33 35
-5 98 -7 141 -4z m441 -15 c6 -18 4 -34 -5 -54 -13 -26 -25 -32 -124 -57 -146
-37 -145 -37 -145 10 l0 39 118 46 c64 25 124 45 132 44 8 -1 19 -14 24 -28z
m4261 -43 c77 -26 164 -49 214 -55 46 -6 86 -13 88 -15 2 -2 -2 -15 -8 -30
-12 -25 -16 -26 -88 -26 -134 0 -277 46 -370 118 -18 14 -22 24 -16 41 8 27 5
28 180 -33z m-4890 5 c44 -20 95 -73 95 -98 0 -9 -17 3 -40 30 -48 54 -92 71
-165 65 -115 -10 -193 -119 -164 -232 14 -55 60 -111 104 -127 34 -13 47 -29
23 -29 -31 1 -94 49 -122 93 -67 109 -17 257 104 306 40 16 122 12 165 -8z
m1669 -5 c44 -14 101 -29 126 -35 39 -9 34 -10 -35 -5 -84 6 -205 38 -205 54
0 15 25 12 114 -14z m325 -36 c7 -25 24 -67 38 -93 13 -27 22 -51 19 -54 -5
-5 -40 48 -67 102 -8 17 -19 29 -24 28 -17 -3 -45 -154 -52 -274 -9 -172 16
-256 103 -349 24 -26 44 -50 44 -54 0 -15 -23 -4 -60 30 -116 105 -152 348
-85 578 27 93 55 151 65 138 4 -4 12 -27 19 -52z m1410 -25 c47 -126 65 -319
40 -437 -17 -80 -57 -153 -113 -205 -69 -66 -71 -37 -2 37 73 79 96 150 96
294 0 97 -20 249 -41 303 -8 21 -12 23 -24 13 -8 -7 -15 -18 -15 -24 0 -17
-61 -119 -67 -112 -3 3 8 34 25 68 17 35 36 83 42 108 11 41 13 43 26 25 8
-10 23 -42 33 -70z m356 70 c-25 -20 -77 -34 -145 -40 -54 -6 -54 -5 30 20 46
14 86 28 89 31 2 2 14 4 25 4 21 -1 21 -1 1 -15z m1755 -20 c34 -17 78 -63 98
-100 21 -39 21 -140 -1 -181 -29 -57 -122 -124 -149 -108 -5 4 7 14 29 24 21
9 53 33 70 53 104 119 34 293 -127 314 -54 8 -135 -31 -171 -80 -18 -24 -29
-33 -29 -24 0 31 70 96 119 112 50 16 119 12 161 -10z m-5542 -45 c17 -11 32
-25 32 -30 0 -11 -152 -204 -168 -214 -5 -3 -22 8 -38 25 -26 27 -29 37 -29
94 0 49 4 68 20 85 53 60 124 76 183 40z m5529 -20 c64 -39 84 -136 40 -201
-38 -56 -38 -56 -191 133 l-38 47 34 21 c43 26 112 26 155 0z m-5834 -31 c-7
-26 -23 -32 -54 -20 -24 9 -24 9 11 25 46 20 49 20 43 -5z m917 -20 c-6 -18
-10 -48 -10 -66 0 -30 -3 -33 -77 -61 -43 -16 -90 -32 -105 -36 l-28 -6 0 72
0 73 113 30 c61 17 113 30 114 30 2 -1 -2 -17 -7 -36z m1222 21 c-36 -15 -176
-24 -218 -14 -32 7 -17 10 86 14 69 3 132 7 140 7 8 1 5 -2 -8 -7z m1003 -119
c58 -51 123 -89 182 -108 l53 -17 -74 -21 c-110 -32 -195 -93 -258 -185 -16
-24 -17 -14 -17 218 l-1 244 38 -49 c21 -26 56 -63 77 -82z m-756 -18 c17 -21
31 -42 31 -47 0 -15 -31 16 -72 72 -26 34 -45 52 -54 48 -11 -4 -13 1 -8 22
11 46 16 46 44 -6 15 -28 42 -68 59 -89z m1330 80 c1 -7 -5 -10 -12 -7 -8 3
-35 -23 -67 -67 -30 -40 -56 -67 -58 -61 -2 7 17 38 41 69 25 32 53 74 63 93
18 35 18 35 25 10 4 -14 7 -30 8 -37z m357 46 c-22 -5 -70 -6 -115 0 l-76 8
115 1 c90 0 107 -2 76 -9z m1327 -56 l97 -6 0 -44 c0 -24 4 -52 10 -62 7 -14
5 -23 -9 -35 -16 -15 -29 -16 -102 -6 -86 10 -204 44 -214 61 -8 11 10 11 55
0 19 -5 55 -12 80 -16 l45 -6 -32 24 c-17 13 -78 36 -133 52 -56 16 -104 34
-105 40 -2 5 -6 22 -9 36 l-6 26 113 -30 c69 -18 149 -31 210 -34z m648 55
c50 -15 50 -28 -1 -28 -22 0 -40 2 -40 4 0 2 -3 11 -6 20 -7 19 -3 19 47 4z
m103 -34 c12 -5 -4 -19 -56 -51 -40 -25 -76 -46 -79 -48 -3 -2 -3 9 -1 25 4
26 9 29 53 35 39 6 49 11 49 26 0 20 8 23 34 13z m-6166 -56 c4 -32 0 -34 -33
-12 -34 22 -33 46 3 42 21 -2 28 -9 30 -30z m2185 17 c-39 -27 -104 -45 -162
-44 -93 1 -108 17 -16 19 50 0 99 8 130 19 64 23 75 25 48 6z m186 -73 c34
-48 45 -70 32 -62 -24 12 -91 108 -91 129 0 8 1 12 3 10 2 -2 27 -37 56 -77z
m1331 38 c-22 -43 -80 -114 -87 -106 -5 4 95 146 103 146 2 0 -5 -18 -16 -40z
m244 10 c32 -6 79 -9 105 -6 44 5 45 5 11 -5 -43 -14 -124 -6 -170 15 -19 9
-28 15 -20 12 9 -2 42 -9 74 -16z m-1561 -117 c28 -29 49 -55 46 -57 -3 -3
-27 13 -54 34 -28 22 -60 45 -72 51 -18 9 -23 21 -23 49 0 52 10 55 32 12 11
-20 43 -61 71 -89z m1361 73 c6 -34 4 -46 -4 -41 -6 4 -30 -9 -53 -28 -23 -18
-55 -42 -72 -53 -23 -14 -18 -6 23 40 29 32 62 76 73 98 11 22 22 38 23 36 2
-1 7 -25 10 -52z m-1549 -15 c-9 -16 -113 -51 -148 -50 -24 0 -12 6 46 23 42
13 80 26 84 30 10 10 25 7 18 -3z m1740 -32 c33 -10 53 -18 44 -18 -26 -1
-113 27 -134 44 -19 15 -19 15 5 4 14 -7 52 -21 85 -30z m1296 -28 c47 -17
114 -34 148 -38 l63 -6 -25 -24 c-24 -24 -26 -25 -111 -14 -53 6 -111 21 -147
37 -53 24 -59 30 -59 57 0 35 0 35 131 -12z m-2841 -67 c0 -11 -38 17 -70 52
l-35 38 53 -43 c28 -24 52 -45 52 -47z m1330 67 c-5 -11 -22 -28 -37 -39 -55
-37 -57 -34 -8 11 57 53 59 54 45 28z m-1345 -86 c85 -56 67 -58 -32 -3 -29
16 -57 27 -63 23 -6 -4 -10 10 -10 37 l0 43 25 -31 c14 -18 50 -48 80 -69z
m1125 54 c0 -16 -4 -29 -10 -29 -5 0 -10 16 -10 36 0 21 4 33 10 29 6 -3 10
-19 10 -36z m249 9 c0 -31 -6 -36 -76 -71 -41 -21 -77 -36 -80 -34 -2 3 20 21
49 40 30 19 65 48 79 65 13 17 25 31 27 31 1 1 2 -14 1 -31z m-3080 -184 c101
-109 215 -234 254 -278 l72 -79 -106 8 -106 7 -7 -32 c-3 -18 -6 -53 -7 -79 0
-25 -3 -54 -7 -63 -5 -12 -63 78 -199 309 l-193 325 48 43 c26 25 52 43 57 41
6 -1 93 -92 194 -202z m91 176 c0 -33 -5 -35 -96 -44 -45 -4 -55 -2 -74 19
l-22 24 33 5 c19 2 57 9 84 14 76 14 75 14 75 -18z m5280 -14 l45 -15 -74 0
c-64 -1 -72 1 -61 14 15 19 33 19 90 1z m-3855 -15 c-13 -13 -85 -43 -85 -36
0 3 19 14 43 25 50 22 54 23 42 11z m3078 -65 c37 -6 67 -16 67 -21 -1 -18
-142 -10 -197 10 -52 19 -59 28 -47 59 5 13 13 12 57 -11 29 -14 82 -31 120
-37z m888 39 c2 -14 -117 -73 -173 -85 -76 -16 -144 -13 -164 8 -10 9 -20 16
-23 16 -3 -1 -13 1 -21 4 -30 12 48 25 185 31 133 6 140 7 143 27 3 18 8 21
27 15 14 -3 25 -10 26 -16z m-5885 -19 c48 0 64 -4 73 -18 6 -9 7 -19 3 -22
-16 -9 -197 -26 -224 -21 -24 6 -28 11 -28 42 l0 36 58 -8 c31 -5 85 -9 118
-9z m2132 -66 c17 -7 32 -17 32 -22 0 -11 -31 -2 -82 23 -21 11 -44 19 -53 19
-8 0 -15 3 -15 8 0 4 -3 18 -7 31 -6 22 -3 21 43 -11 27 -19 64 -41 82 -48z
m7 22 c-5 -5 -83 36 -89 47 -3 5 16 -3 43 -18 27 -14 48 -27 46 -29z m1084 51
c24 -6 24 -6 18 -122 -15 -322 -166 -724 -340 -908 -29 -31 -69 -64 -89 -74
l-38 -19 0 281 0 281 45 57 c68 86 162 151 263 181 l42 13 0 72 c0 47 -5 76
-13 83 -24 21 -140 -12 -271 -76 -16 -8 6 43 40 94 37 55 102 107 161 129 40
14 141 19 182 8z m254 -43 c-8 -7 -139 -60 -148 -60 -3 0 -5 4 -5 9 0 4 19 16
43 25 24 9 58 29 77 45 33 27 35 28 38 9 2 -11 0 -24 -5 -28z m-43 35 c0 -2
-13 -11 -30 -20 -38 -19 -40 -11 -2 9 31 17 32 18 32 11z m-2942 -22 c-4 -23
-72 -30 -95 -11 -14 11 -10 14 33 19 27 3 53 7 57 7 5 1 7 -6 5 -15z m4360
-53 c29 -11 80 -23 113 -27 61 -6 68 -10 47 -31 -17 -17 -46 -15 -114 8 -61
21 -84 20 -84 -4 0 -13 93 -56 120 -56 15 0 12 -11 -6 -32 -16 -17 -19 -16
-73 13 -98 52 -97 51 -77 104 10 25 18 45 19 45 1 0 26 -9 55 -20z m-4274
-139 c-3 -3 -33 23 -65 59 l-60 65 63 5 63 5 3 -64 c2 -35 0 -66 -4 -70z
m1549 80 c47 -16 50 -37 5 -26 -18 4 -44 9 -58 10 -17 1 -28 11 -38 35 l-13
33 34 -20 c18 -11 50 -26 70 -32z m1324 13 c-8 -15 -23 -29 -33 -30 -11 -1
-36 -6 -56 -9 -55 -11 -48 10 10 30 26 8 56 22 66 30 26 20 31 13 13 -21z
m-1327 16 c8 -5 11 -10 5 -10 -5 0 -17 5 -25 10 -8 5 -10 10 -5 10 6 0 17 -5
25 -10z m-2203 -44 c-3 -7 -38 -18 -81 -25 -66 -11 -76 -15 -76 -33 0 -20 4
-20 80 -14 l80 7 0 -37 0 -37 -47 6 c-64 8 -195 50 -195 62 1 6 34 29 75 53
108 63 184 71 164 18z m5624 30 c123 -18 229 -69 202 -97 -11 -11 -13 -10 -13
3 0 11 -15 17 -61 22 -59 6 -286 53 -302 63 -4 2 -5 9 -2 14 8 12 62 11 176
-5z m-60 -85 c68 -16 146 -33 172 -36 l48 -6 -38 -27 c-33 -23 -48 -26 -113
-26 -88 1 -178 25 -217 58 -26 22 -27 26 -13 50 7 15 19 25 26 22 7 -3 68 -18
135 -35z m-663 -39 l53 -35 -27 -28 -27 -28 -36 19 c-20 10 -52 32 -71 48
l-35 30 24 26 c27 29 27 28 119 -32z m-2806 -89 c48 -102 49 -260 1 -343 -8
-14 -12 -18 -10 -9 3 8 -1 30 -9 47 -9 23 -22 34 -44 38 -30 7 -38 18 -20 29
6 3 10 24 10 45 0 46 -35 80 -84 80 l-31 1 32 14 c17 7 36 22 42 34 29 54 -6
121 -63 121 l-31 1 38 14 c37 13 66 39 67 60 2 21 74 -73 102 -132z m132 106
c-11 -3 -27 -1 -36 5 -30 18 -20 25 18 13 29 -9 32 -12 18 -18z m1242 12 c-11
-12 -25 -17 -44 -13 l-27 5 35 13 c49 18 56 17 36 -5z m234 -41 l33 -17 -32
-6 c-23 -5 -35 -15 -45 -38 -18 -43 -7 -79 34 -106 l33 -23 -30 0 c-55 0 -93
-64 -68 -114 9 -16 14 -30 13 -30 -2 -1 -16 -6 -33 -12 -17 -5 -36 -22 -44
-38 -17 -35 -24 -25 -41 58 -23 114 6 234 81 333 41 55 42 55 54 33 7 -13 27
-31 45 -40z m-2931 -53 c-22 -18 -23 -18 -53 12 -16 17 -28 32 -25 34 2 2 24
16 49 30 l45 27 3 -42 c3 -34 -1 -46 -19 -61z m4659 4 c47 -25 119 -41 205
-48 83 -6 109 -14 88 -28 -27 -16 -346 47 -374 75 -5 4 -4 18 3 30 12 22 12
22 33 2 12 -11 32 -25 45 -31z m-599 -48 c2 -2 0 -3 -5 -3 -5 0 -22 12 -39 26
l-30 26 35 -23 c19 -12 37 -24 39 -26z m-4744 8 c-6 -6 -52 -15 -102 -22 -83
-10 -93 -14 -93 -32 0 -19 4 -20 100 -13 96 7 100 6 100 -14 0 -17 -6 -20 -50
-20 -56 0 -199 19 -218 29 -8 5 10 21 50 44 58 34 68 37 142 37 50 0 76 -4 71
-9z m2112 3 c-3 -3 -12 -4 -19 -1 -8 3 -5 6 6 6 11 1 17 -2 13 -5z m1270 0
c-3 -3 -12 -4 -19 -1 -8 3 -5 6 6 6 11 1 17 -2 13 -5z m1975 -45 c54 -15 125
-31 158 -35 58 -6 60 -7 39 -22 -42 -29 -198 -15 -326 31 -38 13 -39 15 -17
45 11 16 21 21 33 16 9 -4 60 -19 113 -35z m-636 -54 c-13 -16 -27 -30 -32
-30 -5 0 -10 24 -12 53 l-3 53 35 -23 35 -23 -23 -30z m-3319 47 c6 -4 14 -23
18 -42 5 -31 2 -39 -27 -66 -20 -18 -49 -34 -73 -38 -83 -15 -173 -40 -244
-68 -70 -27 -97 -30 -74 -7 6 6 51 25 99 43 80 28 89 34 89 56 0 35 -28 36
-114 7 l-71 -23 0 28 c0 28 -1 28 -60 28 -33 0 -60 4 -60 9 0 10 109 46 200
65 69 15 297 21 317 8z m795 -4 c-15 -18 -72 -51 -72 -41 0 4 17 18 38 30 43
26 48 27 34 11z m1143 -33 c14 -11 7 -10 -22 4 -23 12 -45 26 -48 32 -8 13 41
-12 70 -36z m1095 1 c52 -13 111 -31 130 -39 l35 -15 -30 -1 c-16 -1 -47 -4
-67 -7 -32 -6 -38 -11 -38 -31 0 -16 -4 -23 -12 -19 -46 19 -122 37 -145 34
-40 -4 -44 -42 -6 -55 136 -50 173 -67 173 -77 0 -9 -29 -2 -92 22 -51 19
-133 43 -181 53 -49 10 -96 24 -105 31 -47 38 -52 48 -46 88 6 37 8 39 48 43
87 10 242 -3 336 -27z m893 -61 c34 -9 73 -24 87 -34 14 -10 39 -25 55 -34 17
-9 39 -23 49 -32 20 -15 20 -15 1 -29 -23 -17 -49 -6 -127 50 -25 19 -72 51
-105 70 -32 20 -50 34 -40 30 10 -3 46 -13 80 -21z m-3113 5 c0 -8 -51 -40
-65 -40 -16 0 -1 19 28 33 40 19 37 19 37 7z m1080 -5 c34 -17 40 -36 11 -28
-19 5 -61 43 -47 43 4 0 20 -7 36 -15z m1932 -24 c37 -22 102 -65 145 -97 43
-32 80 -59 82 -61 2 -1 -8 -14 -23 -28 l-27 -25 -42 19 c-23 10 -76 44 -117
76 -41 32 -89 64 -106 73 l-32 15 20 33 c11 19 23 34 27 34 3 0 36 -18 73 -39z
m-5132 -3 c-1 -35 -104 -107 -177 -123 -23 -5 -33 -12 -33 -26 0 -12 7 -19 18
-19 34 0 106 26 150 53 l42 27 0 -49 c0 -48 -1 -50 -32 -57 -69 -15 -248 -3
-248 16 0 25 235 197 273 199 4 1 7 -9 7 -21z m652 10 c138 -11 146 -12 137
-30 -9 -17 -20 -18 -132 -12 -67 4 -133 7 -147 8 l-25 1 -15 -168 -16 -167 39
-7 c48 -7 43 -27 -9 -31 -69 -4 -69 -4 -55 175 6 87 14 177 17 201 7 50 -7 47
206 30z m4182 -40 c4 -24 12 -118 19 -210 l13 -166 -49 -4 c-57 -4 -88 17 -40
27 50 11 54 15 49 32 -2 10 -10 85 -17 166 l-12 148 -146 -7 c-129 -6 -148 -5
-160 10 -12 14 -11 16 5 17 11 0 80 7 154 14 74 7 145 13 157 14 18 1 23 -6
27 -41z m-2619 -95 c21 -54 46 -115 57 -135 l18 -38 -24 0 c-14 0 -28 -4 -31
-10 -3 -5 -35 -26 -70 -45 l-63 -36 -26 26 c-17 17 -36 25 -60 25 -34 0 -35 1
-29 34 4 28 1 39 -22 62 l-28 27 29 21 c16 12 69 53 119 93 49 40 91 72 91 73
1 0 19 -44 39 -97z m1009 3 c64 -49 116 -91 116 -92 0 -2 -12 -15 -26 -29 -22
-22 -26 -33 -21 -64 4 -36 4 -37 -24 -33 -34 5 -75 -18 -84 -48 -8 -26 -16
-23 -107 32 -38 22 -74 38 -82 35 -9 -3 -37 -52 -64 -109 -58 -121 -128 -212
-178 -228 -20 -7 -52 -9 -76 -5 l-42 7 52 20 c131 49 292 276 384 541 12 37
26 66 30 65 4 -2 59 -43 122 -92z m-2955 41 c-28 -23 -226 -193 -246 -211 -9
-9 -9 -15 1 -28 12 -16 23 -10 117 70 162 136 179 148 190 131 5 -8 9 -27 9
-44 0 -26 -12 -39 -90 -100 -50 -38 -109 -78 -131 -88 -41 -19 -160 -29 -174
-15 -13 12 86 138 134 170 25 18 62 44 81 59 32 26 118 77 130 78 3 0 -7 -10
-21 -22z m458 -6 c8 -4 -17 -44 -75 -119 -76 -99 -90 -112 -117 -112 l-30 0 7
88 c3 48 7 104 7 125 l1 39 98 -7 c53 -4 102 -10 109 -14z m4035 -57 c3 -32 8
-88 10 -124 3 -64 3 -65 -24 -68 -27 -3 -64 36 -171 185 l-37 51 87 7 c49 3
93 8 98 10 23 8 30 -5 37 -61z m297 29 c2 -2 0 -3 -6 -3 -6 0 -21 9 -34 21
l-24 20 30 -17 c17 -10 32 -19 34 -21z m-3712 -54 c75 -10 147 -25 161 -32 30
-14 98 -125 85 -138 -4 -4 -41 0 -83 11 -48 13 -109 20 -168 20 -61 0 -122 7
-175 21 -82 20 -239 87 -250 106 -7 11 34 31 121 62 l53 18 60 -24 c34 -14
117 -32 196 -44z m3654 19 l41 -33 -39 -17 c-35 -17 -31 -17 30 -3 14 4 9 -2
-13 -14 -37 -20 -52 -17 -83 17 -17 18 -17 21 0 51 10 17 19 31 21 31 2 0 21
-15 43 -32z m86 16 c-3 -3 -12 -4 -19 -1 -8 3 -5 6 6 6 11 1 17 -2 13 -5z
m-3187 -74 c0 -5 -5 -10 -11 -10 -5 0 -7 5 -4 10 3 6 8 10 11 10 2 0 4 -4 4
-10z m-1525 -107 c-6 -81 -10 -92 -45 -138 -80 -104 -111 -200 -66 -200 13 0
35 26 68 80 64 104 99 139 127 130 21 -6 20 -8 -13 -48 -56 -70 -123 -197
-156 -293 -16 -51 -30 -99 -30 -108 0 -22 -3 -21 -87 27 l-75 42 6 57 c20 171
115 374 239 506 17 17 33 32 35 32 2 0 1 -39 -3 -87z m4618 -28 c104 -138 176
-316 180 -443 l2 -56 -74 -43 c-40 -24 -74 -43 -75 -41 -1 2 -9 35 -19 73 -23
93 -90 232 -154 322 l-52 73 29 0 c25 0 36 -10 77 -70 27 -38 57 -84 68 -102
11 -18 30 -34 43 -36 48 -7 16 87 -67 197 -24 32 -41 66 -41 81 0 15 -3 56 -7
91 -6 61 -6 63 12 49 10 -8 45 -51 78 -95z m-4071 40 c10 -18 10 -19 -5 -6
-21 17 -22 2 -1 -27 16 -23 6 -30 -14 -10 -15 15 -15 3 0 -25 10 -20 10 -21
-5 -8 -11 8 -15 24 -13 45 2 17 4 42 5 56 1 26 6 23 33 -25z m121 5 c5 -4 2
-20 -6 -36 l-15 -28 -21 34 c-11 19 -21 39 -21 44 0 9 51 -1 63 -14z m3249
-30 c-29 -39 -31 -41 -41 -22 -6 12 -11 25 -11 30 0 9 71 42 79 36 2 -2 -10
-22 -27 -44z m-88 -51 c8 -31 4 -44 -24 -97 -18 -34 -36 -62 -39 -62 -13 0
-70 106 -76 141 l-7 35 49 11 c75 16 87 13 97 -28z m-2904 -99 c0 -101 -4
-128 -22 -174 l-23 -55 -42 66 c-42 65 -43 67 -26 92 34 52 62 107 74 149 7
23 18 42 26 42 10 0 13 -26 13 -120z m1720 108 c0 -41 -108 -217 -160 -263
-13 -11 -3 8 22 41 24 34 62 100 83 148 36 79 55 105 55 74z m-1566 -290 c-19
-20 -154 -91 -161 -84 -5 5 46 122 118 271 l54 109 3 -138 c2 -119 0 -141 -14
-158z m2567 250 c3 -20 20 -65 39 -101 36 -71 35 -91 -13 -170 l-23 -37 -77
166 c-42 91 -77 170 -77 175 0 6 30 9 72 7 l73 -3 6 -37z m-1588 -108 c43 -51
118 -109 150 -116 32 -7 26 -18 -16 -28 -24 -6 -35 1 -96 64 -40 41 -83 98
-105 139 -46 88 -46 101 1 31 20 -30 50 -71 66 -90z m1469 -53 c20 -47 20 -49
3 -88 -10 -22 -22 -42 -27 -45 -4 -3 -29 9 -54 27 -50 34 -95 97 -120 168 -9
25 -22 60 -29 77 -13 30 -12 30 14 27 14 -2 49 3 76 10 l50 14 33 -71 c18 -39
43 -93 54 -119z m-3760 93 c-20 -44 -43 -80 -50 -80 -23 0 0 53 55 128 13 17
26 32 28 32 2 0 -13 -36 -33 -80z m2083 11 c38 -77 106 -167 169 -223 34 -31
38 -37 21 -38 -11 0 -71 -27 -132 -59 l-113 -58 0 224 c0 140 4 223 10 223 5
0 25 -31 45 -69z m2923 0 c13 -23 20 -41 15 -41 -4 0 -21 24 -37 53 -16 28
-23 47 -15 40 8 -6 25 -30 37 -52z m-2048 -182 c0 -120 -2 -219 -5 -219 -3 0
-60 27 -126 60 l-121 61 70 73 c65 69 142 183 157 234 17 59 25 -6 25 -209z
m-2315 151 c0 -8 6 -26 14 -40 13 -24 12 -23 -19 5 l-34 30 22 -37 c23 -41 20
-48 -11 -20 -20 17 -20 17 -2 -18 l18 -35 -27 24 c-30 28 -34 22 -10 -15 22
-33 15 -37 -17 -10 -22 19 -109 138 -109 148 0 2 39 -1 87 -7 67 -7 88 -14 88
-25z m4013 -37 c27 -38 62 -94 78 -125 l28 -57 -46 -98 c-43 -91 -48 -98 -73
-96 -39 3 -83 36 -138 105 -70 89 -70 90 14 223 41 63 77 115 81 115 3 0 29
-30 56 -67z m-4305 -364 c-11 -11 -182 -44 -189 -37 -8 8 60 208 96 282 16 34
44 81 62 106 l33 44 3 -194 c1 -106 -1 -197 -5 -201z m1971 259 c28 -27 45
-48 38 -48 -17 0 -123 110 -145 151 -17 30 -14 29 19 -11 21 -25 60 -66 88
-92z m1089 95 c-29 -70 -65 -138 -101 -188 -49 -69 -161 -194 -186 -207 -12
-6 13 25 55 68 84 87 149 180 175 252 15 42 59 112 69 112 2 0 -3 -17 -12 -37z
m-1802 -266 c29 -38 78 -91 111 -117 l58 -49 -27 -14 c-28 -15 -271 -119 -317
-137 -22 -8 -28 -3 -80 76 l-56 84 0 119 0 119 34 22 c42 26 92 81 113 126
l16 33 49 -97 c26 -53 71 -128 99 -165z m43 179 c33 -71 84 -139 168 -223 40
-40 67 -73 61 -73 -14 0 -134 128 -191 205 -24 33 -58 87 -74 120 -26 51 -28
57 -9 41 11 -10 32 -42 45 -70z m1962 -50 c23 -23 69 -57 103 -75 59 -31 61
-34 61 -72 0 -33 -15 -62 -97 -184 -53 -80 -100 -145 -106 -145 -5 0 -90 35
-189 77 l-181 77 39 30 c114 88 228 254 278 401 6 16 10 13 29 -24 12 -24 41
-63 63 -85z m-2958 -163 c29 -45 52 -86 52 -92 0 -16 -111 -131 -143 -147 -39
-21 -46 -11 -59 75 -14 88 -1 154 44 224 36 56 31 59 106 -60z m3617 -163 c10
-11 16 -20 13 -20 -3 0 -13 9 -23 20 -10 11 -16 20 -13 20 3 0 13 -9 23 -20z
m-1905 -835 c0 -2 -9 -9 -20 -15 -16 -9 -20 -8 -20 5 0 8 9 15 20 15 11 0 20
-2 20 -5z m-270 -34 c0 -4 -11 -18 -25 -31 l-25 -23 0 35 c0 32 2 35 25 30 14
-2 25 -8 25 -11z m-2122 -6 c68 -21 167 -97 219 -171 40 -55 136 -234 130
-241 -2 -1 -21 7 -43 17 -26 13 -65 21 -110 23 -63 2 -69 0 -69 -18 0 -18 8
-21 75 -25 63 -5 83 -11 121 -37 52 -36 55 -40 64 -109 l7 -49 -42 60 c-41 58
-57 75 -72 75 -20 0 -3 -51 55 -163 l62 -122 0 -110 c0 -104 -22 -311 -32
-301 -3 3 -7 74 -8 158 -4 172 -21 249 -75 331 -30 44 -116 117 -138 117 -25
0 -16 -29 26 -80 82 -101 107 -180 117 -380 4 -69 16 -172 27 -229 19 -101 19
-106 2 -197 -10 -52 -21 -91 -24 -87 -9 11 -58 126 -82 193 -17 47 -19 77 -17
210 3 227 0 285 -22 356 -22 72 -95 187 -122 192 -31 6 -29 -27 7 -112 47
-109 55 -179 43 -383 -13 -235 -10 -246 142 -491 22 -35 37 -70 34 -79 -12
-31 -172 153 -208 239 -8 20 -21 94 -29 166 -9 72 -23 150 -32 174 -9 24 -14
57 -12 73 13 122 -5 225 -76 445 l-33 105 5 -145 c4 -116 2 -156 -11 -200 -24
-79 -29 -85 -64 -72 -15 6 -53 18 -85 26 l-56 16 -1 263 -1 263 24 14 c51 27
54 101 5 150 -21 20 -29 38 -29 63 0 31 4 36 43 50 108 40 199 47 285 22z
m2312 5 c0 -5 -2 -10 -4 -10 -3 0 -8 5 -11 10 -3 6 -1 10 4 10 6 0 11 -4 11
-10z m2943 -19 c56 -22 57 -23 57 -60 0 -23 -6 -44 -16 -52 -50 -41 -56 -109
-14 -149 l30 -28 -2 -263 -3 -262 -65 -18 c-36 -10 -73 -23 -82 -28 -14 -9
-20 -2 -39 47 -19 47 -23 76 -23 167 1 61 4 133 8 160 10 76 -6 39 -60 -135
-44 -145 -47 -163 -50 -280 -1 -75 -9 -147 -18 -180 -9 -30 -21 -104 -26 -165
-8 -85 -17 -124 -39 -170 -27 -58 -171 -235 -191 -235 -24 0 -5 44 60 145 114
176 121 212 105 500 -9 155 0 212 51 330 29 67 35 88 25 98 -8 8 -16 9 -29 1
-29 -18 -88 -114 -113 -183 -23 -63 -24 -76 -21 -283 3 -239 -1 -262 -76 -428
l-29 -65 -12 55 c-22 98 -24 161 -6 235 9 39 20 138 25 220 5 83 14 172 20
198 14 65 53 142 102 200 36 43 45 77 20 77 -18 0 -104 -73 -133 -113 -52 -72
-71 -153 -78 -337 l-6 -165 -12 65 c-21 112 -36 322 -29 410 13 159 25 207 60
236 46 40 88 54 156 54 58 0 60 1 60 26 l0 27 -67 -7 c-37 -4 -87 -16 -110
-26 -24 -10 -43 -16 -43 -13 0 14 82 167 118 221 52 76 135 147 209 178 50 21
70 24 143 21 56 -3 105 -12 143 -26z m-5570 -191 c3 -11 1 -23 -4 -26 -5 -3
-9 6 -9 20 0 31 6 34 13 6z m5624 -12 c-3 -8 -6 -5 -6 6 -1 11 2 17 5 13 3 -3
4 -12 1 -19z m133 -8 c0 -5 -2 -10 -4 -10 -3 0 -8 5 -11 10 -3 6 -1 10 4 10 6
0 11 -4 11 -10z m-2954 -37 c14 -23 15 -26 1 -15 -9 8 -20 11 -26 8 -5 -3 -7
3 -4 14 7 25 7 25 29 -7z m-101 -3 c3 -5 1 -10 -4 -10 -6 0 -11 5 -11 10 0 6
2 10 4 10 3 0 8 -4 11 -10z m-137 -145 c22 5 24 4 13 -9 -24 -28 -54 -12 -50
27 1 7 3 4 6 -6 4 -15 11 -17 31 -12z m127 -5 c9 0 12 -6 9 -15 -9 -22 -19
-18 -32 10 -15 32 -15 46 -1 23 5 -10 16 -18 24 -18z m122 -36 c-6 -6 -47 45
-47 58 0 5 12 -5 26 -22 15 -17 24 -33 21 -36z m-317 52 c0 -2 -8 -10 -17 -17
-16 -13 -17 -12 -4 4 13 16 21 21 21 13z m440 -16 c8 -5 11 -12 7 -16 -4 -4
-15 0 -24 9 -18 18 -8 23 17 7z m-1217 -37 c21 -24 33 -73 18 -73 -7 0 -23 7
-37 17 -15 9 -44 16 -70 15 -42 0 -44 1 -44 29 0 29 1 29 58 29 43 0 63 -5 75
-17z m110 -17 c-2 -28 -28 -66 -45 -66 -4 0 -8 11 -8 24 0 14 -4 37 -10 51
-10 26 -9 26 28 23 34 -3 37 -5 35 -32z m57 -35 c0 -54 -4 -70 -16 -75 -21 -8
-74 -8 -74 0 0 4 16 24 35 45 24 26 35 49 35 69 0 17 5 30 10 30 6 0 10 -30
10 -69z m580 65 c0 -2 -8 -10 -17 -17 -16 -13 -17 -12 -4 4 13 16 21 21 21 13z
m1233 -16 c3 -11 1 -23 -4 -26 -14 -8 0 -26 14 -18 7 4 9 4 5 -1 -5 -5 1 -14
12 -22 11 -8 20 -21 20 -30 0 -12 3 -13 13 -4 8 6 16 10 18 8 2 -1 -9 10 -26
25 -16 15 -25 27 -19 28 7 0 15 -7 18 -16 3 -8 10 -12 16 -9 5 3 10 1 10 -5 0
-7 7 -10 14 -7 10 4 13 1 9 -9 -5 -15 13 -44 28 -44 13 0 11 27 -3 50 -11 17
-10 22 2 30 8 5 11 12 7 16 -4 4 -1 14 6 22 10 13 8 14 -18 8 -16 -4 -33 -13
-37 -19 -5 -8 -14 -5 -30 12 -13 13 -18 21 -11 17 6 -3 14 -2 18 4 3 5 28 10
56 10 l49 0 0 -149 c0 -156 -1 -161 -46 -161 -24 0 -56 41 -70 89 l-14 46 6
-41 c3 -23 1 -45 -4 -48 -10 -6 -11 0 -12 94 -1 73 -8 83 -43 65 -16 -8 -27
-10 -27 -4 0 21 -33 3 -37 -19 -3 -20 0 -22 19 -16 13 4 28 13 33 21 10 13 13
12 25 -2 11 -13 12 -29 3 -80 -16 -95 -66 -132 -113 -85 -18 18 -20 33 -20
155 l0 135 64 0 c55 0 64 -3 69 -20z m-1331 -40 c-34 -49 -65 -52 -142 -12
-87 44 -79 52 54 52 l116 0 -28 -40z m936 28 c-6 -20 -108 -68 -143 -68 -27 0
-37 7 -59 40 l-26 40 116 0 c88 0 115 -3 112 -12z m-838 -12 c0 -2 -8 -10 -17
-17 -16 -13 -17 -12 -4 4 13 16 21 21 21 13z m294 -11 c-4 -8 -10 -15 -15 -15
-5 0 -9 7 -9 15 0 8 7 15 15 15 9 0 12 -6 9 -15z m-210 -50 c-17 -25 -19 -26
-31 -9 -18 24 -16 41 5 53 12 7 21 6 30 -3 12 -12 11 -18 -4 -41z m339 6 c-2
-3 -16 8 -31 24 l-27 28 31 -24 c17 -13 30 -26 27 -28z m80 35 c16 -12 17 -18
6 -38 -17 -33 -17 -33 -38 -14 -16 15 -18 22 -9 42 13 28 16 28 41 10z m-333
-15 c-16 -31 -28 -33 -41 -9 -11 20 -10 21 3 10 13 -10 18 -9 28 3 17 21 23
19 10 -4z m78 -82 c-23 -15 -37 -10 -53 21 -14 27 -14 32 2 56 l17 26 24 -47
c19 -38 21 -49 10 -56z m113 28 c-16 -26 -27 -34 -41 -30 -18 5 -19 7 -3 37
27 53 34 59 51 42 13 -13 12 -19 -7 -49z m233 34 c-2 -3 -12 3 -22 13 -16 17
-16 18 5 5 12 -7 20 -15 17 -18z m-1368 -5 c18 -14 18 -15 -9 -25 -16 -6 -31
-11 -35 -11 -3 0 -19 -12 -34 -27 l-28 -27 0 46 c0 28 5 48 13 51 25 11 74 7
93 -7z m1072 -11 c-9 -19 -14 -22 -25 -14 -17 15 -17 30 1 23 8 -3 17 -1 21 5
12 21 15 11 3 -14z m-298 -24 c15 -29 13 -31 -25 -31 -46 0 -49 -17 -40 -173
13 -229 40 -318 127 -413 53 -58 189 -154 217 -154 28 0 104 54 184 129 117
111 152 212 164 473 l6 137 -51 3 -51 3 18 24 c17 22 20 23 54 10 33 -11 37
-17 43 -57 16 -108 -17 -339 -93 -661 l-18 -73 -45 -2 c-25 -1 -62 -10 -82
-20 -42 -20 -118 -98 -118 -121 0 -8 -4 -15 -10 -15 -5 0 -10 7 -10 15 0 21
-67 93 -104 112 -17 9 -53 18 -80 22 l-49 6 -39 115 c-79 234 -121 479 -104
613 7 50 10 57 29 57 12 0 29 5 37 10 22 14 28 12 40 -9z m77 -11 c11 9 10 5
-4 -10 -25 -26 -36 -21 -48 20 l-6 25 19 -25 c18 -21 22 -22 39 -10z m429 1
c16 13 16 12 5 -9 -11 -21 -14 -22 -34 -9 -11 7 -23 20 -25 28 -3 9 2 8 16 -5
19 -16 24 -17 38 -5z m-362 -7 c9 -23 8 -24 -26 -24 -30 0 -31 0 -13 20 22 24
31 25 39 4z m246 -4 c0 -5 -4 -10 -10 -10 -5 0 -10 5 -10 10 0 6 5 10 10 10 6
0 10 -4 10 -10z m46 -18 c-22 -5 -30 3 -21 18 5 8 11 7 22 -2 15 -12 14 -13
-1 -16z m-1196 4 c0 -8 -5 -27 -10 -41 -7 -18 -7 -39 -1 -61 l9 -34 -49 0
c-48 0 -49 1 -49 29 0 42 17 83 43 103 27 21 57 23 57 4z m180 -43 c0 -35 -1
-35 -32 -29 -33 6 -68 37 -68 60 0 7 17 10 50 8 50 -4 50 -4 50 -39z m-2005
11 l17 -27 -28 7 c-36 9 -36 9 -28 30 9 23 19 20 39 -10z m5883 -16 c-46 -13
-52 -9 -27 18 22 24 24 24 37 7 11 -16 10 -19 -10 -25z m-4378 -313 c-19 -265
-64 -603 -91 -683 -11 -32 -11 -32 31 249 27 181 38 312 58 654 l7 130 3 -100
c2 -55 -2 -167 -8 -250z m71 20 c1 -345 -26 -555 -127 -960 -68 -276 -104
-346 -104 -202 0 56 9 103 41 207 77 257 123 545 154 960 8 113 15 232 16 265
1 59 1 59 10 20 5 -22 9 -152 10 -290z m303 307 c10 -29 52 -64 87 -71 18 -4
34 -12 37 -19 3 -9 -16 -12 -67 -12 -79 0 -91 10 -91 73 0 47 23 66 34 29z
m372 -89 l37 -52 -27 -45 c-37 -63 -70 -86 -122 -86 l-44 0 0 79 c0 55 4 82
14 90 13 11 22 28 47 96 l11 30 24 -30 c13 -16 41 -53 60 -82z m84 42 c0 -36
-2 -65 -4 -65 -5 0 -86 117 -86 124 0 3 20 6 45 6 l45 0 0 -65z m1130 57 c0
-5 -16 -31 -35 -58 l-35 -49 0 58 0 57 35 0 c19 0 35 -4 35 -8z m95 -29 c3
-16 19 -48 34 -73 24 -40 27 -53 23 -112 l-4 -68 -43 0 c-53 0 -87 25 -120 90
l-24 47 55 77 c31 42 59 74 64 71 4 -3 11 -17 15 -32z m620 -381 c29 -360 65
-584 132 -812 28 -94 38 -151 43 -228 3 -56 1 -102 -3 -102 -34 0 -163 542
-197 830 -22 181 -29 548 -13 675 7 59 8 57 15 -55 4 -63 14 -202 23 -308z
m35 192 c11 -256 30 -441 71 -683 16 -96 27 -176 25 -178 -6 -6 -54 261 -71
389 -32 255 -59 715 -40 696 3 -3 10 -104 15 -224z m-390 149 c-11 -17 -11
-17 -6 0 3 10 7 28 7 40 2 22 2 22 6 0 2 -12 -1 -30 -7 -40z m-145 -54 c11
-17 -1 -21 -15 -4 -8 9 -8 15 -2 15 6 0 14 -5 17 -11z m-1940 -85 c28 -13 60
-24 72 -24 30 0 32 -6 24 -79 -6 -64 -6 -65 -51 -89 -34 -18 -56 -22 -87 -19
-71 8 -73 12 -73 164 l0 135 33 -32 c17 -18 55 -43 82 -56z m2323 -198 c-30
-24 -102 -18 -152 13 -35 22 -36 25 -36 82 0 32 0 62 -1 66 0 5 16 11 36 15
48 10 104 40 140 75 l30 28 3 -130 c3 -125 2 -131 -20 -149z m-1038 82 c0
-151 0 -152 -27 -180 -26 -27 -29 -28 -136 -28 l-109 0 -34 34 -34 34 0 149 0
148 170 -3 170 -3 0 -151z m-980 16 c-31 -56 -118 -98 -152 -72 -15 11 -17 23
-10 77 l7 64 45 11 c25 7 59 19 75 28 l30 16 9 -49 c7 -37 5 -56 -4 -75z
m1737 78 l38 -8 9 -67 c5 -37 5 -71 2 -75 -4 -3 -25 -7 -47 -7 -33 0 -46 7
-84 46 l-46 45 7 56 7 57 38 -20 c21 -10 56 -23 76 -27z m-3411 -58 c-9 -67
-61 -157 -137 -238 l-68 -71 1 67 1 68 42 25 c54 31 130 116 145 160 16 49 24
43 16 -11z m5191 -86 c9 -10 40 -34 70 -54 l53 -35 0 -62 -1 -62 -67 70 c-78
82 -120 154 -128 221 l-6 49 31 -54 c17 -30 39 -63 48 -73z m-5323 91 c13 -12
-11 -37 -56 -60 l-38 -19 0 36 c0 23 6 42 18 50 17 13 59 9 76 -7z m5456 -30
c0 -21 -3 -39 -7 -39 -15 0 -74 53 -70 63 4 13 46 26 65 19 7 -2 12 -21 12
-43z m-3453 4 c-35 -36 -41 -38 -94 -36 -54 2 -58 0 -106 -43 -27 -24 -54 -44
-60 -44 -6 0 7 14 30 30 22 17 48 42 57 56 12 18 25 25 44 23 59 -4 91 2 123
25 48 34 49 32 6 -11z m93 -63 l0 -90 -30 0 c-30 0 -30 -1 -45 74 -3 15 59
106 72 106 2 0 3 -40 3 -90z m1232 48 c50 -1 56 -4 110 -54 34 -32 66 -54 79
-54 12 0 20 -3 16 -6 -13 -14 -57 8 -106 52 -50 45 -52 46 -100 39 -47 -6 -51
-5 -88 30 l-38 37 37 -22 c24 -14 55 -21 90 -22z m-117 -64 c-14 -70 -16 -74
-35 -74 -18 0 -20 7 -20 80 l0 81 30 -34 c17 -20 27 -42 25 -53z m-1236 -10
c2 -2 6 -22 8 -46 5 -42 3 -45 -51 -96 -53 -51 -58 -53 -103 -50 l-48 3 -9 52
-9 52 54 49 c51 47 54 49 103 44 28 -2 53 -6 55 -8z m1491 -99 c0 -11 -3 -37
-6 -57 -7 -38 -7 -38 -56 -38 -43 0 -53 5 -94 42 -58 54 -67 71 -59 118 7 39
7 39 58 42 49 3 55 0 104 -42 31 -26 53 -53 53 -65z m-1835 75 c3 -5 -3 -10
-15 -10 -12 0 -18 5 -15 10 3 6 10 10 15 10 5 0 12 -4 15 -10z m2011 -6 c17
-14 17 -15 1 -10 -10 3 -25 6 -33 6 -9 0 -12 5 -9 10 9 14 18 13 41 -6z m1633
-105 l51 -77 0 -122 0 -122 -32 28 c-18 15 -51 43 -74 63 l-40 36 11 105 c12
106 24 174 30 168 2 -2 26 -37 54 -79z m-5100 4 c6 -38 13 -98 17 -134 l6 -65
-70 -62 c-38 -34 -72 -62 -76 -62 -3 0 -6 53 -6 117 l0 117 52 78 c29 43 55
78 59 78 4 0 12 -30 18 -67z m1512 40 c36 -5 37 -6 44 -59 3 -30 4 -58 1 -63
-3 -5 -27 -23 -53 -40 -52 -35 -105 -41 -141 -15 -19 13 -22 24 -22 79 l0 64
53 24 c28 14 59 23 67 20 8 -3 31 -7 51 -10z m805 -91 c-25 -5 -86 56 -86 86
0 22 5 19 53 -29 42 -44 49 -55 33 -57z m1154 88 c22 -11 46 -20 55 -20 12 0
15 -14 15 -71 0 -83 -11 -98 -73 -99 -45 0 -82 17 -121 58 -26 29 -28 34 -20
78 9 45 11 48 54 59 25 7 46 13 48 14 1 0 20 -8 42 -19z m-820 -20 c0 -26 -46
-70 -74 -70 -17 0 -13 7 24 45 24 25 45 45 47 45 2 0 3 -9 3 -20z m1034 -172
c-9 -15 -51 -8 -78 13 -23 18 -26 27 -26 85 l0 64 33 0 c17 0 39 5 47 10 13 8
16 -4 22 -77 4 -48 4 -91 2 -95z m-2403 162 c17 0 19 -8 19 -64 0 -58 -3 -67
-27 -86 -36 -28 -78 -24 -77 8 0 12 1 52 2 88 l2 67 31 -7 c17 -3 40 -6 50 -6z
m629 0 c0 -5 -15 -10 -33 -10 -26 0 -42 -10 -77 -45 -52 -53 -114 -80 -169
-72 -33 4 -45 0 -78 -26 l-38 -31 34 37 c33 35 38 37 100 37 73 0 118 24 166
86 21 27 33 34 61 34 18 0 34 -4 34 -10z m1170 -36 c60 -61 88 -74 158 -74 53
0 61 -3 88 -32 l29 -32 -32 26 c-27 22 -39 25 -73 21 -56 -8 -117 18 -170 72
-34 35 -51 45 -76 45 -18 0 -36 5 -39 10 -4 6 9 10 32 10 33 0 46 -7 83 -46z
m-14 -213 c-14 -262 -37 -404 -66 -386 -25 15 -9 345 26 532 l6 31 20 -20 c19
-19 20 -28 14 -157z m-1197 71 c30 -189 35 -462 9 -462 -29 0 -47 118 -64 403
-6 105 -5 120 12 138 23 25 28 16 43 -79z m3386 58 c10 -11 16 -20 13 -20 -3
0 -13 9 -23 20 -10 11 -16 20 -13 20 3 0 13 -9 23 -20z m-5465 7 c0 -2 -10
-12 -22 -23 l-23 -19 19 23 c18 21 26 27 26 19z m1990 -94 c0 -36 -2 -64 -4
-62 -9 11 -15 129 -6 129 6 0 10 -30 10 -67z m1331 -13 l-8 -75 -2 71 c-1 60
5 92 15 81 1 -1 -1 -36 -5 -77z m-1382 -220 c1 -161 -12 -330 -26 -353 -3 -5
-11 -1 -17 9 -7 12 -12 122 -14 316 l-4 296 24 4 c21 3 24 -2 30 -47 3 -27 6
-129 7 -225z m1480 -2 c0 -272 -6 -353 -24 -353 -5 0 -13 18 -17 40 -13 66
-21 383 -13 488 7 94 8 97 31 97 l24 0 -1 -272z m-1859 252 c13 -9 13 -10 0
-10 -8 0 -22 5 -30 10 -13 9 -13 10 0 10 8 0 22 -5 30 -10z m287 -327 c-1 -65
-3 -14 -3 112 0 127 2 180 3 118 2 -62 2 -165 0 -230z m1615 180 c-4 -292 -8
-319 -10 -80 -1 130 1 237 6 237 4 0 6 -71 4 -157z m-1673 -253 c-10 -136 -29
-259 -40 -266 -21 -13 -31 86 -24 246 13 328 19 389 41 404 18 14 19 10 25
-127 4 -78 2 -194 -2 -257z m1765 364 c2 -6 10 -130 17 -276 12 -258 8 -346
-16 -351 -25 -5 -52 288 -47 520 2 139 3 142 22 131 11 -7 22 -18 24 -24z
m-1850 -204 c-22 -323 -16 -437 23 -458 11 -6 12 -11 4 -16 -42 -26 -56 72
-54 378 1 236 3 261 19 273 10 7 18 12 19 10 1 -1 -4 -85 -11 -187z m-151 173
c8 -14 -99 -743 -110 -753 -6 -6 -1 40 43 345 19 132 37 279 41 328 5 78 13
102 26 80z m2070 -109 c19 -253 -9 -576 -48 -544 -11 9 -11 14 5 30 10 10 22
36 26 56 7 37 1 240 -13 468 -5 91 -4 108 8 104 10 -3 16 -34 22 -114z m150
33 c4 -46 25 -211 47 -367 22 -156 39 -288 37 -294 -2 -6 -16 66 -31 159 -41
261 -83 569 -79 578 12 22 21 -2 26 -76z m-3463 -42 c7 -9 -5 -22 -47 -52 -32
-22 -64 -43 -70 -47 -10 -5 -13 10 -13 66 0 68 3 77 31 111 l32 39 28 -52 c16
-29 33 -58 39 -65z m4960 -32 c0 -40 -3 -73 -6 -73 -4 0 -35 21 -71 46 -61 43
-63 47 -50 67 8 12 24 42 36 65 l22 44 34 -39 c32 -36 34 -43 35 -110z m-3785
95 c-37 -319 -70 -506 -116 -655 -18 -58 -22 -63 -48 -63 -23 0 -28 4 -25 18
18 73 134 672 134 689 0 18 34 48 57 53 2 0 0 -19 -2 -42z m151 -85 c-4 -71
-14 -184 -22 -253 -16 -125 -58 -352 -69 -370 -3 -6 -20 -10 -36 -10 -28 0
-30 2 -25 28 7 36 71 499 87 630 l12 102 30 0 29 0 -6 -127z m2084 112 c0 -20
88 -682 96 -717 5 -26 3 -28 -25 -28 -16 0 -32 4 -35 8 -3 5 -17 65 -30 133
-30 147 -52 328 -61 497 l-6 122 30 0 c21 0 31 -5 31 -15z m211 -356 c38 -189
71 -354 74 -366 5 -20 1 -23 -24 -23 -29 0 -31 4 -51 68 -37 126 -68 286 -89
457 -12 94 -23 185 -26 202 -4 33 -3 33 22 19 25 -13 29 -28 94 -357z m-2531
323 c0 -10 -23 -128 -50 -262 -74 -357 -73 -355 -77 -344 -2 6 21 137 52 292
30 155 55 293 55 307 0 14 5 25 10 25 6 0 10 -8 10 -18z m2520 -2 c0 -11 23
-135 50 -276 48 -245 63 -352 34 -234 -19 76 -104 499 -104 516 0 8 5 14 10
14 6 0 10 -9 10 -20z m-1899 -258 c6 -29 22 -66 36 -82 23 -28 23 -30 5 -30
-12 0 -25 12 -35 33 -20 41 -37 179 -36 277 2 72 2 70 10 -35 5 -60 14 -134
20 -163z m1280 42 c-11 -94 -33 -154 -55 -154 -12 0 -10 9 9 48 26 48 43 142
47 247 l2 60 3 -59 c2 -33 0 -97 -6 -142z m-3328 125 c-24 -42 -27 -44 -118
-78 l-80 -30 49 45 c48 44 128 93 154 94 10 0 8 -8 -5 -31z m5572 -5 c50 -30
124 -94 109 -94 -11 0 -153 55 -159 62 -1 2 -10 18 -19 36 l-17 34 23 -7 c13
-4 41 -18 63 -31z m-3079 -16 c3 -13 15 -35 26 -51 20 -28 26 -95 13 -137 -3
-11 -19 -27 -35 -35 l-28 -14 -11 65 c-7 36 -15 95 -18 130 -6 64 -6 64 20 64
18 0 28 -7 33 -22z m84 -3 c0 -30 -15 -33 -30 -6 -14 27 -13 31 10 31 15 0 20
-7 20 -25z m270 19 c0 -3 -5 -14 -10 -25 -15 -28 -40 -24 -40 6 0 20 5 25 25
25 14 0 25 -3 25 -6z m100 -15 c0 -11 -7 -67 -16 -125 -14 -89 -19 -104 -35
-104 -43 0 -74 111 -45 160 8 14 23 40 32 58 21 38 64 46 64 11z m-2562 -2 c9
-10 -11 -35 -83 -107 l-95 -95 0 43 c0 40 3 44 83 107 45 36 83 65 83 65 1 0
6 -6 12 -13z m4828 -53 c81 -63 84 -67 84 -106 l0 -40 -95 87 c-52 48 -95 89
-95 90 0 9 13 35 17 35 2 0 42 -30 89 -66z m-2469 -55 c13 -5 23 -17 23 -27 0
-40 33 -124 61 -156 l30 -35 -28 -13 c-20 -9 -29 -22 -31 -43 -9 -104 -24 -97
-46 23 -18 96 -48 166 -69 159 -26 -8 -47 -57 -57 -132 -6 -44 -14 -91 -16
-105 -5 -23 -6 -23 -16 -6 -5 10 -11 34 -12 54 -1 29 -6 39 -28 50 -32 15 -34
24 -12 43 25 20 54 85 61 134 5 36 12 49 32 60 15 7 33 26 40 41 l12 28 16
-33 c9 -18 27 -37 40 -42z m-2312 -75 c-32 -43 -69 -99 -84 -124 l-26 -45 -3
94 -3 95 58 58 57 58 29 -28 28 -29 -56 -79z m4745 -63 l0 -94 -81 118 -80
118 27 28 28 29 53 -52 53 -52 0 -95z m-3953 127 c-3 -8 -6 -5 -6 6 -1 11 2
17 5 13 3 -3 4 -12 1 -19z m1198 -165 c-12 -86 -25 -54 -24 59 l1 113 14 -65
c9 -37 12 -83 9 -107z m-171 97 c24 0 25 -1 11 -32 -56 -135 -395 -1120 -408
-1186 -5 -25 -2 -37 13 -52 21 -21 91 -43 118 -38 9 2 24 -5 32 -15 16 -20 79
-36 143 -37 20 0 37 -4 37 -9 0 -14 58 -31 103 -31 24 0 48 -7 60 -17 15 -15
39 -18 121 -19 88 0 108 -3 156 -27 l54 -26 63 35 c62 34 64 35 131 26 74 -11
118 -6 142 13 8 7 46 15 85 19 38 4 76 13 85 20 8 8 49 18 90 24 57 8 78 16
89 32 10 14 24 20 52 20 47 0 116 26 128 49 6 11 -7 56 -39 141 -26 69 -132
345 -234 613 -102 269 -186 490 -186 493 0 2 7 4 15 4 9 0 26 11 39 25 l23 25
12 -61 c21 -104 75 -136 133 -79 16 17 31 30 32 30 2 0 6 -28 10 -62 3 -35 16
-83 29 -108 18 -38 27 -46 54 -48 33 -3 48 12 63 67 6 23 8 20 23 -29 9 -30
23 -65 31 -76 39 -55 98 -23 118 62 l12 51 27 -132 c46 -229 119 -412 174
-437 l25 -11 2 -484 3 -483 -1152 0 -1153 0 0 653 c0 640 1 654 23 765 l23
112 15 -47 c8 -28 25 -54 41 -67 l28 -20 27 20 c19 14 35 42 50 85 12 35 22
56 22 46 2 -30 29 -74 50 -80 46 -12 101 78 101 164 0 53 9 59 40 27 57 -57
122 -12 136 93 l7 49 23 -25 c13 -14 34 -25 48 -25z m1893 28 c-3 -8 -6 -5 -6
6 -1 11 2 17 5 13 3 -3 4 -12 1 -19z m-1180 -110 c-2 -13 -4 -5 -4 17 -1 22 1
32 4 23 2 -10 2 -28 0 -40z m-670 -5 c-13 -39 -81 -202 -84 -199 -6 6 72 216
81 216 4 0 6 -8 3 -17z m623 -14 c0 -11 -38 2 -50 16 -10 11 -6 12 19 2 17 -6
31 -14 31 -18z m-404 12 c-8 -12 -46 -21 -46 -11 0 9 18 18 38 19 7 1 11 -3 8
-8z m658 -210 c37 -101 65 -185 63 -187 -6 -7 -137 335 -137 358 0 12 2 19 4
17 2 -2 34 -87 70 -188z m-1253 66 c-7 -7 -13 -2 -21 17 -14 38 -13 39 11 15
15 -15 18 -24 10 -32z m1539 18 c-6 -15 -13 -25 -17 -21 -3 3 0 17 7 31 7 14
15 23 17 21 2 -2 -1 -16 -7 -31z m-955 -166 c-6 -124 -4 -151 9 -177 29 -55
14 -75 -16 -22 -23 40 -73 42 -118 3 -32 -26 -33 -26 -47 -8 -11 16 -11 20 -1
23 7 2 33 10 57 19 58 21 69 51 77 206 7 121 8 125 26 114 19 -11 19 -20 13
-158z m409 54 c8 -113 22 -177 43 -195 9 -7 35 -20 60 -28 41 -14 43 -16 29
-35 -14 -20 -15 -20 -24 5 -5 14 -11 24 -13 22 -2 -2 -17 2 -34 8 -38 14 -69
1 -94 -41 -26 -42 -32 -16 -7 34 18 37 19 48 8 146 -6 58 -8 120 -5 136 14 87
28 68 37 -52z m1143 25 c-3 -7 -5 -2 -5 12 0 14 2 19 5 13 2 -7 2 -19 0 -25z
m-1243 -26 c-15 -22 -19 -24 -22 -10 -3 17 30 60 36 46 2 -5 -4 -21 -14 -36z
m140 21 c11 -23 46 -178 46 -208 0 -21 -40 31 -45 59 -8 43 -22 176 -18 176 1
0 9 -12 17 -27z m-364 -20 c0 -13 -3 -13 -15 -3 -8 7 -15 19 -15 27 0 13 3 13
15 3 8 -7 15 -19 15 -27z m-160 -68 c-9 -83 -28 -130 -47 -112 -10 11 17 157
34 184 9 13 17 22 19 20 2 -1 -1 -43 -6 -92z m1637 53 c-3 -8 -6 -5 -6 6 -1
11 2 17 5 13 3 -3 4 -12 1 -19z m-2770 -10 c-3 -8 -6 -5 -6 6 -1 11 2 17 5 13
3 -3 4 -12 1 -19z m935 -95 c-3 -76 -9 -106 -24 -135 -12 -21 -18 -45 -15 -58
5 -19 -44 -231 -85 -370 -14 -44 -14 -45 -61 -48 -37 -2 -47 0 -47 12 0 28
224 696 234 696 0 0 -1 -44 -2 -97z m468 75 c1 -7 5 -59 10 -116 7 -76 6 -108
-2 -122 -11 -18 -13 -17 -25 12 -15 35 -7 238 8 238 5 0 9 -6 9 -12z m500
-133 c65 -161 174 -457 188 -507 l10 -38 -49 0 -48 0 -40 128 c-67 213 -73
240 -66 281 5 32 2 43 -21 71 -24 28 -28 42 -32 119 -2 47 -2 84 1 81 3 -3 29
-63 57 -135z m-610 -19 c0 -30 -16 -42 -35 -26 -25 21 -19 50 10 50 20 0 25
-5 25 -24z m260 -4 c0 -10 -5 -23 -12 -30 -7 -7 -20 -12 -30 -12 -13 0 -18 8
-18 30 0 27 3 30 30 30 22 0 30 -5 30 -18z m225 8 c8 -13 -5 -13 -25 0 -13 8
-13 10 2 10 9 0 20 -4 23 -10z m-765 -110 l-1 -25 -15 28 c-9 17 -23 27 -37
27 -21 1 -21 1 -4 15 16 11 21 11 38 -3 10 -9 19 -28 19 -42z m832 43 c10 -9
18 -20 18 -25 0 -5 -7 -2 -16 7 -12 12 -19 13 -30 4 -8 -6 -14 -17 -14 -25 0
-7 -4 -16 -10 -19 -17 -10 -11 30 8 53 21 26 21 26 44 5z m-674 -5 c7 -7 12
-19 12 -27 0 -11 -4 -11 -19 3 -22 20 -39 14 -50 -17 -6 -16 -9 -17 -14 -5 -7
21 19 58 42 58 9 0 22 -5 29 -12z m172 -17 c5 -11 10 -28 9 -38 0 -12 -4 -9
-11 10 -12 33 -45 36 -58 5 -8 -22 -9 -22 -9 -2 -2 42 49 61 69 25z m344 -2
c8 -12 12 -29 8 -38 -5 -13 -7 -11 -12 9 -7 31 -37 38 -55 13 -17 -21 -20 -10
-5 18 14 25 45 24 64 -2z m-176 -1 c7 -7 12 -21 11 -32 0 -19 -1 -19 -10 2
-11 30 -39 25 -56 -8 -9 -19 -13 -20 -13 -7 0 44 41 72 68 45z m-273 -47 c3
-10 14 -26 25 -36 18 -17 20 -31 20 -189 0 -94 -3 -201 -7 -238 l-6 -68 -46 0
-46 0 2 78 c5 128 23 415 29 445 6 31 20 35 29 8z m361 -28 c12 -27 18 -95 23
-263 4 -124 10 -231 15 -238 5 -9 -7 -12 -47 -12 -48 0 -55 3 -61 23 -3 12
-11 113 -18 225 -11 202 -11 203 10 230 12 15 27 37 34 50 16 31 27 28 44 -15z
m-162 -223 c4 -102 9 -206 12 -232 l6 -48 -52 0 -51 0 6 208 c6 232 10 275 27
301 11 18 13 17 28 -12 14 -25 19 -72 24 -217z m-127 218 c-3 -8 -6 -5 -6 6
-1 11 2 17 5 13 3 -3 4 -12 1 -19z m510 -16 c27 -23 37 -47 72 -168 22 -77 47
-168 55 -202 l14 -62 -48 0 -48 0 -12 48 c-16 64 -80 382 -80 399 0 19 11 16
47 -15z m-807 11 c0 -12 -51 -307 -63 -368 l-13 -60 -42 -3 c-42 -3 -43 -3
-36 25 9 42 74 303 85 346 6 22 16 37 25 37 8 0 17 7 20 15 6 15 24 21 24 8z
m95 -135 c-3 -35 -7 -128 -10 -208 -8 -200 -8 -200 -59 -200 l-42 0 8 78 c10
90 45 301 59 355 7 26 15 37 29 37 17 0 19 -6 15 -62z m620 18 c17 -74 26
-127 45 -243 26 -169 26 -163 -9 -163 -28 0 -30 2 -40 68 -8 49 -41 345 -41
367 0 2 9 1 20 -2 11 -3 22 -15 25 -27z m-2981 -317 c-34 -176 0 -280 134
-415 87 -87 118 -128 135 -177 7 -21 11 -142 12 -357 l0 -325 28 -58 c17 -33
47 -72 72 -94 l44 -36 -25 -34 c-13 -18 -36 -49 -50 -69 l-26 -35 -58 60 c-74
75 -104 121 -130 195 -26 78 -26 213 0 366 52 301 40 367 -105 580 -78 113
-98 173 -93 275 3 64 11 95 36 149 18 38 34 67 37 64 3 -2 -3 -42 -11 -89z
m5513 -124 c7 -104 -14 -158 -113 -308 -122 -183 -132 -244 -88 -521 19 -118
25 -188 22 -262 -3 -93 -6 -107 -41 -176 -49 -99 -184 -243 -201 -214 -6 10
-26 38 -43 61 -18 24 -33 47 -33 50 0 3 14 18 31 32 45 38 105 132 123 193 20
67 20 210 1 345 -44 305 9 450 232 632 66 55 78 88 69 207 -3 50 -8 105 -11
121 -4 22 2 15 21 -25 19 -40 28 -77 31 -135z m-4412 -743 c-3 -8 -155 -237
-337 -510 l-333 -496 -3 169 -3 169 70 100 c39 56 164 239 278 408 l207 308
63 -68 c34 -37 60 -73 58 -80z m3680 -347 c38 -55 104 -151 147 -212 l78 -113
-2 -170 -3 -170 -337 504 c-186 278 -338 511 -338 518 0 7 28 40 61 74 l62 62
131 -196 c73 -108 163 -242 201 -297z m-150 -289 l376 -563 -3 -147 -3 -148
-160 243 c-88 133 -163 249 -167 258 -6 14 -149 231 -444 675 -47 70 -88 134
-90 141 -6 14 96 116 108 109 4 -3 176 -258 383 -568z m-3386 516 l53 -47 -85
-131 c-48 -73 -92 -134 -99 -137 -18 -6 -365 -538 -365 -557 0 -8 -71 -123
-159 -254 l-159 -239 -3 141 -3 141 377 566 c208 311 380 565 384 565 3 0 30
-21 59 -48z m261 -227 c0 -8 -73 -42 -125 -59 -50 -16 -196 -38 -203 -31 -3 2
31 58 73 124 l78 120 88 -75 c49 -42 89 -77 89 -79z m2669 37 c39 -59 71 -111
71 -115 0 -14 -90 -6 -156 14 -67 21 -170 67 -162 73 53 47 164 136 169 136 3
0 38 -49 78 -108z m-1038 -180 c130 -34 249 -80 454 -175 204 -94 313 -135
444 -169 100 -26 134 -30 246 -31 81 0 156 6 198 15 l68 16 49 -74 50 -73 -52
-16 c-135 -40 -220 -50 -423 -49 -189 0 -205 1 -288 27 -83 26 -209 86 -412
197 -163 90 -297 121 -587 140 -282 18 -627 -17 -782 -79 -39 -16 -114 -53
-166 -84 -156 -89 -274 -145 -367 -173 -74 -22 -113 -27 -245 -32 -166 -5
-257 4 -413 40 -150 35 -143 25 -84 115 28 43 52 79 53 81 2 2 49 -6 104 -18
145 -29 323 -28 463 4 113 26 152 40 404 146 402 169 681 232 1000 226 151 -3
183 -7 286 -34z"/>
<path d="M7840 9331 c0 -7 -4 -9 -10 -6 -6 4 -7 -1 -3 -11 6 -15 7 -15 15 1 6
9 7 19 4 22 -3 4 -6 1 -6 -6z"/>
<path d="M4980 5348 c0 -15 10 -29 30 -40 17 -9 30 -13 30 -8 0 5 8 7 18 3 13
-5 11 1 -8 23 -14 16 -25 30 -25 30 0 1 -10 5 -22 8 -19 6 -23 4 -23 -16z"/>
</g>
</svg>
