<svg xmlns="http://www.w3.org/2000/svg" xmlns:xlink="http://www.w3.org/1999/xlink" width="35" height="33" viewBox="0 0 35 33"><defs><path id="fuoua" d="M261.793 7579.502c0 .858-.69 1.56-1.55 1.592l-1.28 1.38.243 2.08c.443.285.737.778.737 1.337 0 .88-.722 1.593-1.609 1.593-.743 0-1.37-.502-1.552-1.183l-1.925-.874-1.924.874a1.606 1.606 0 0 1-1.552 1.183 1.602 1.602 0 0 1-1.609-1.593c0-.56.294-1.052.737-1.336l.242-2.082-1.2-1.296a1.6 1.6 0 0 1-1.55-1.589c0-.879.722-1.594 1.61-1.594.217 0 .425.043.615.122l2.092-.418 1.027-1.806a1.57 1.57 0 0 1-.096-.535c0-.878.722-1.593 1.608-1.593.887 0 1.609.715 1.609 1.593 0 .188-.035.367-.096.535l1.027 1.806 2.02.404c.229-.123.49-.193.768-.193.887 0 1.608.714 1.608 1.593zm-6.444 3.592l1.388.628-.177-1.51c-.039-.335.071-.668.302-.916l1.043-1.127-1.506-.3a1.176 1.176 0 0 1-.793-.57l-.749-1.315-.748 1.315a1.175 1.175 0 0 1-.793.57l-1.506.3 1.043 1.127c.23.248.34.581.301.916l-.176 1.51 1.387-.628a1.178 1.178 0 0 1 .984 0zm-9.56-5.664c0 .641-.527 1.161-1.178 1.161h-7.778a1.17 1.17 0 0 1-1.178-1.16 1.17 1.17 0 0 1 1.178-1.163h7.778c.65 0 1.178.52 1.178 1.162zm0 3.835a1.17 1.17 0 0 1-1.178 1.161h-7.778a1.17 1.17 0 0 1-1.178-1.161 1.17 1.17 0 0 1 1.178-1.162h7.778c.65 0 1.178.52 1.178 1.162zm0 3.834a1.17 1.17 0 0 1-1.178 1.163h-7.778a1.17 1.17 0 0 1-1.178-1.163c0-.64.527-1.162 1.178-1.162h7.778c.65 0 1.178.521 1.178 1.162zM266 7571.271v18.127c0 1.987-1.639 3.603-3.653 3.603h-27.694c-2.014 0-3.653-1.616-3.653-3.603v-18.127c0-1.985 1.639-3.604 3.653-3.604h5.863v-2.671c0-.642.528-1.161 1.178-1.161h1.877c.532-2.198 2.54-3.836 4.929-3.836 2.388 0 4.396 1.638 4.929 3.836h1.876c.651 0 1.179.52 1.179 1.16v2.672h5.863c2.014 0 3.653 1.62 3.653 3.604zm-23.127-5.113v3.428h11.254v-3.428h-1.738a1.17 1.17 0 0 1-1.179-1.162c0-1.473-1.216-2.672-2.71-2.672-1.495 0-2.71 1.199-2.71 2.672a1.17 1.17 0 0 1-1.18 1.162zm20.77 5.113a1.29 1.29 0 0 0-1.296-1.28h-5.863v.758a1.17 1.17 0 0 1-1.179 1.161h-13.61a1.17 1.17 0 0 1-1.18-1.161v-.757h-5.862a1.29 1.29 0 0 0-1.296 1.28v18.126a1.29 1.29 0 0 0 1.296 1.28h27.694a1.29 1.29 0 0 0 1.296-1.28zm-15.143-7.215c.526 0 .953.42.953.94 0 .518-.427.94-.953.94a.947.947 0 0 1-.953-.94c0-.52.427-.94.953-.94z"/></defs><g><g transform="translate(-231 -7560)"><use fill="#fff" xlink:href="#fuoua"/></g></g></svg>