<svg xmlns="http://www.w3.org/2000/svg" xmlns:xlink="http://www.w3.org/1999/xlink" width="24" height="40" viewBox="0 0 24 40"><defs><path id="9jjca" d="M257.906 7473h-17.812c-1.71 0-3.094-1.398-3.094-3.105v-33.789a3.103 3.103 0 0 1 3.094-3.106h17.812a3.104 3.104 0 0 1 3.094 3.106v33.78a3.117 3.117 0 0 1-3.094 3.115zm-18.911-10.068h20.002V7440.2h-20.002zm0-26.826v2.09h20.01v-2.09c0-.613-.496-1.104-1.099-1.104h-17.812c-.603 0-1.1.49-1.1 1.104zm1.099 34.884h17.804c.61 0 1.1-.499 1.1-1.103v-4.961h-20.003v4.96c0 .614.496 1.104 1.099 1.104zm11.926-2.941a1 1 0 0 1-1 1.003h-4.047a1.001 1.001 0 0 1-1.001-1.003c0-.557.447-1.005 1-1.005h4.047c.554 0 1.001.448 1.001 1.005z"/></defs><g><g transform="translate(-237 -7433)"><use fill="#fff" xlink:href="#9jjca"/></g></g></svg>