<svg xmlns="http://www.w3.org/2000/svg" xmlns:xlink="http://www.w3.org/1999/xlink" width="15" height="15" viewBox="0 0 15 15"><defs><path id="neeaa" d="M1199.784 46.788l-1.149 1.15a.83.83 0 0 1-1.176 0 .835.835 0 0 1 0-1.179l1.464-1.463a.829.829 0 0 1 .75-.228l3.658.732c.39.077.67.42.669.818v4.394c0 .386-.265.72-.64.81-2.82.672-6.847-.437-10.29-3.884-3.442-3.445-4.547-7.48-3.876-10.307a.829.829 0 0 1 .81-.639h4.39c.395 0 .736.28.815.668l.73 3.664a.834.834 0 0 1-.226.751l-1.027 1.029a8.72 8.72 0 0 0 1.828 2.235.834.834 0 0 1 .082 1.175.828.828 0 0 1-1.173.083c-.18-.157-.356-.322-.525-.49a10.537 10.537 0 0 1-1.981-2.785.835.835 0 0 1 .156-.96l1.149-1.15-.51-2.555h-3.008c-.244 2.244.784 5.344 3.542 8.102 2.758 2.763 5.85 3.793 8.09 3.552v-3.012zM1204 41.99a.832.832 0 1 1-1.664 0 3.33 3.33 0 0 0-3.326-3.333.832.832 0 0 1 0-1.665 4.991 4.991 0 0 1 4.99 4.996zm-2.495 0a.832.832 0 1 1-1.663 0 .832.832 0 0 0-.83-.834h-.002a.832.832 0 0 1 0-1.666 2.498 2.498 0 0 1 2.495 2.498v.002z"/></defs><g><g transform="translate(-1189 -37)"><use fill="#eec965" xlink:href="#neeaa"/></g></g></svg>