<svg xmlns="http://www.w3.org/2000/svg" xmlns:xlink="http://www.w3.org/1999/xlink" width="48" height="55" viewBox="0 0 48 55"><defs><path id="rdjpa" d="M965.735 949.95a1.037 1.037 0 0 1-1.062.304l-8.374-2.427-4.206 7.635a1.038 1.038 0 0 1-1.868-.102l-6.382-12.643c-.607.052-1.222.08-1.843.08-6.018 0-11.45-2.555-15.268-6.637l-5.909 11.501 7.098-2.056c.466-.135.964.07 1.198.494l3.564 6.473 4.217-7.416a1.038 1.038 0 0 1 1.917.795l-5.043 9.41a1.039 1.039 0 0 1-1.867.101l-4.206-7.635-8.374 2.427a1.037 1.037 0 0 1-1.247-1.393l7.15-14.497a20.784 20.784 0 0 1-4.136-12.465c0-11.524 9.378-20.899 20.906-20.899 11.528 0 20.906 9.375 20.906 20.899 0 10.169-7.302 18.662-16.94 20.52l5.35 10.153 3.565-6.473c.234-.424.732-.63 1.198-.494l7.098 2.056-4.782-8.781a1.038 1.038 0 1 1 1.917-.794l5.608 10.775c.153.368.08.791-.185 1.088zM942 940.722c10.383 0 18.83-8.444 18.83-18.824s-8.447-18.825-18.83-18.825c-10.384 0-18.831 8.445-18.831 18.825 0 10.38 8.447 18.824 18.83 18.824zm11.742-21.67l-4.96 5.05 1.044 7a1.039 1.039 0 0 1-1.49 1.081L942 929.028l-6.337 3.156a1.04 1.04 0 0 1-1.489-1.081l1.043-7-4.96-5.05a1.038 1.038 0 1 1 .569-1.75l6.982-1.172 3.272-6.276a1.038 1.038 0 0 1 1.84 0l3.272 6.276 6.982 1.172a1.039 1.039 0 0 1 .568 1.75zm-2.875-.034l-5.528-.927a1.037 1.037 0 0 1-.749-.545L942 912.58l-2.59 4.967c-.15.29-.428.491-.749.545l-5.528.927 3.927 3.999c.228.232.334.557.286.879l-.826 5.542 5.017-2.497a1.034 1.034 0 0 1 .925 0l5.018 2.497-.826-5.542a1.036 1.036 0 0 1 .286-.88zm7.743 5.09c-1.099 8.29-8.24 14.54-16.61 14.54-9.24 0-16.756-7.513-16.756-16.75s7.517-16.75 16.756-16.75c8.37 0 15.511 6.25 16.61 14.54a1.037 1.037 0 0 1-2.057.272c-.963-7.262-7.22-12.737-14.553-12.737-8.095 0-14.68 6.584-14.68 14.675 0 8.093 6.585 14.676 14.68 14.676 7.334 0 13.59-5.475 14.553-12.737a1.037 1.037 0 1 1 2.057.272z"/></defs><g><g transform="translate(-918 -901)"><use xlink:href="#rdjpa"/><use fill="#fff" xlink:href="#rdjpa"/></g></g></svg>