<svg xmlns="http://www.w3.org/2000/svg" xmlns:xlink="http://www.w3.org/1999/xlink" width="40" height="40" viewBox="0 0 40 40"><defs><path id="cq7ja" d="M251.498 7205a2.5 2.5 0 0 1-2.498 2.499 2.5 2.5 0 0 1-2.498-2.5 2.5 2.5 0 0 1 2.498-2.497 2.5 2.5 0 0 1 2.498 2.497zm-2.334 0a.164.164 0 1 0-.328.001.164.164 0 0 0 .328-.002zm19.836 0a1.33 1.33 0 0 1-1.331 1.33h-3.395c-.639 7.396-6.548 13.305-13.943 13.944v3.395a1.331 1.331 0 0 1-2.662 0v-3.395c-7.395-.639-13.304-6.548-13.943-13.943h-3.395a1.33 1.33 0 1 1 0-2.663h3.395c.639-7.394 6.548-13.304 13.943-13.943v-3.393a1.33 1.33 0 1 1 2.662 0v3.393c7.395.639 13.304 6.549 13.943 13.943h3.395c.735 0 1.331.596 1.331 1.331zm-18.669-12.601v4.376a8.353 8.353 0 0 1 6.893 6.893h4.377c-.622-5.925-5.344-10.647-11.27-11.27zm2.005 12.6c0-.735.596-1.33 1.331-1.33h.843a5.689 5.689 0 0 0-4.179-4.18v.844a1.332 1.332 0 0 1-2.662 0v-.844a5.689 5.689 0 0 0-4.18 4.18h.844a1.331 1.331 0 0 1 0 2.662h-.843a5.685 5.685 0 0 0 4.179 4.18v-.844a1.33 1.33 0 1 1 2.662 0v.843a5.685 5.685 0 0 0 4.18-4.18h-.844a1.33 1.33 0 0 1-1.331-1.33zm-15.937-1.33h4.377a8.353 8.353 0 0 1 6.893-6.894v-4.376c-5.926.622-10.648 5.344-11.27 11.27zm11.27 13.932v-4.376a8.351 8.351 0 0 1-6.893-6.894h-4.377c.622 5.925 5.344 10.647 11.27 11.27zm13.932-11.27h-4.377a8.351 8.351 0 0 1-6.893 6.894v4.376c5.926-.623 10.648-5.345 11.27-11.27z"/></defs><g><g transform="translate(-229 -7185)"><use fill="#fff" xlink:href="#cq7ja"/></g></g></svg>