<svg xmlns="http://www.w3.org/2000/svg" xmlns:xlink="http://www.w3.org/1999/xlink" width="32" height="32" viewBox="0 0 32 32"><defs><path id="k7ypa" d="M229.001 117v16a2.001 2.001 0 0 1-2 2.001h-4v-20h4c1.106 0 2 .892 2 1.999zm-2 1a1 1 0 0 0-1-1h-1v16h1a1 1 0 0 0 1-.999zm25 11.002a.984.984 0 0 1-.108.43l-.892 3.568c-.343 1.296-1 2.001-2.25 2.001h-13.75a4 4 0 0 1-4-4V119a4 4 0 0 1 4-4h.273L238 105c.37-1.158.895-2 2-2h3c1.106 0 2 .893 2 2v10h8c1.266 0 2.235.75 1.946 2.22l-.948 3.787a.992.992 0 0 1-.105.426l-.894 3.57a.98.98 0 0 1-.107.43zm-3 2.999l.536-2h-.536a1 1 0 0 1 0-2h1.072l.536-2.001H250a1 1 0 1 1 0-2h1.143l.536-2h-.679a1 1 0 1 1 0-2h1.214l.536-2c.157-.548-.015-1-.75-1h-8a1 1 0 0 1-1-1v-10c0-.553-.447-1-1-1h-.797c-.703 0-1.045.462-1.203 1l-3 10c-.148.522-.5 1-1.14 1H235a2 2 0 0 0-2 2v12a2 2 0 0 0 2 2h12.813c.553 0 1.002-.422 1.187-.999z"/></defs><g><g transform="translate(-223 -103)"><use fill="#fff" xlink:href="#k7ypa"/></g></g></svg>