<svg xmlns="http://www.w3.org/2000/svg" xmlns:xlink="http://www.w3.org/1999/xlink" width="59" height="59" viewBox="0 0 59 59"><defs><path id="c3dha" d="M581.478 929.586c0 9.966-8.106 18.073-18.07 18.073s-18.07-8.107-18.07-18.073c0-9.965 8.107-18.074 18.071-18.074 2.3 0 4.541.428 6.659 1.272a1.391 1.391 0 1 1-1.03 2.586 15.141 15.141 0 0 0-5.63-1.073c-8.428 0-15.286 6.859-15.286 15.289s6.858 15.288 15.287 15.288c8.428 0 15.285-6.858 15.285-15.288 0-1.94-.358-3.832-1.066-5.62a1.393 1.393 0 0 1 2.59-1.025 18 18 0 0 1 1.26 6.645zm8.338 0c0 14.565-11.846 26.414-26.407 26.414C548.847 956 537 944.15 537 929.586c0-14.565 11.847-26.414 26.409-26.414 2.478 0 4.931.344 7.292 1.022a1.392 1.392 0 0 1-.768 2.676 23.635 23.635 0 0 0-6.524-.913c-13.027 0-23.625 10.599-23.625 23.629 0 13.029 10.598 23.63 23.625 23.63 13.026 0 23.623-10.601 23.623-23.63a23.69 23.69 0 0 0-.91-6.515 1.393 1.393 0 0 1 2.676-.766 26.466 26.466 0 0 1 1.018 7.28zm-16.677 0c0 5.366-4.365 9.731-9.73 9.731-5.366 0-9.732-4.365-9.732-9.731 0-5.368 4.366-9.734 9.732-9.734.299 0 .594.013.878.04a1.393 1.393 0 0 1-.255 2.773 6.655 6.655 0 0 0-.623-.028c-3.831 0-6.948 3.117-6.948 6.949a6.955 6.955 0 0 0 6.948 6.947c3.83 0 6.945-3.116 6.945-6.947 0-.202-.009-.404-.026-.603a1.392 1.392 0 0 1 2.773-.247c.025.28.037.566.038.85zm22.044-20.192l-8.11 8.111a4.144 4.144 0 0 1-2.952 1.223h-7.877l-11.312 11.315a1.387 1.387 0 0 1-.985.408 1.393 1.393 0 0 1-.984-2.377l11.313-11.315v-7.878c0-1.115.434-2.165 1.222-2.953l8.11-8.111a2.774 2.774 0 0 1 3.034-.604 2.778 2.778 0 0 1 1.719 2.574v4.853h4.853c1.13 0 2.14.675 2.573 1.72a2.775 2.775 0 0 1-.604 3.034zm-18.123-.514v5.096l8.517-8.52v-5.668l-8.11 8.109a1.382 1.382 0 0 0-.407.983zm16.154-1.454l-5.669-.001-8.517 8.519h5.093a1.4 1.4 0 0 0 .984-.407z"/><linearGradient id="c3dhb" x1="537" x2="596" y1="956" y2="897" gradientUnits="userSpaceOnUse"><stop offset="0" stop-color="#3a54c4"/><stop offset="1" stop-color="#afc0fd"/></linearGradient></defs><g><g transform="translate(-537 -897)"><use fill="#fff" xlink:href="#c3dha"/><use fill="url(#c3dhb)" xlink:href="#c3dha"/></g></g></svg>