<svg xmlns="http://www.w3.org/2000/svg" xmlns:xlink="http://www.w3.org/1999/xlink" width="59" height="59" viewBox="0 0 59 59"><defs><path id="7j0ca" d="M695.478 792.585c0 9.967-8.106 18.074-18.07 18.074s-18.07-8.107-18.07-18.074c0-9.964 8.107-18.073 18.07-18.073 2.302 0 4.542.428 6.66 1.271a1.391 1.391 0 1 1-1.03 2.587 15.14 15.14 0 0 0-5.63-1.073c-8.428 0-15.286 6.859-15.286 15.288 0 8.43 6.858 15.29 15.287 15.29 8.428 0 15.285-6.86 15.285-15.29 0-1.94-.358-3.83-1.066-5.62a1.393 1.393 0 0 1 2.59-1.024 17.997 17.997 0 0 1 1.26 6.645zm8.338 0c0 14.566-11.846 26.415-26.407 26.415C662.847 819 651 807.15 651 792.585c0-14.564 11.847-26.413 26.409-26.413 2.477 0 4.931.344 7.292 1.022a1.392 1.392 0 0 1-.768 2.676 23.632 23.632 0 0 0-6.524-.913c-13.027 0-23.625 10.599-23.625 23.628 0 13.03 10.598 23.63 23.625 23.63 13.026 0 23.623-10.6 23.623-23.63a23.69 23.69 0 0 0-.91-6.514 1.393 1.393 0 0 1 2.676-.766 26.466 26.466 0 0 1 1.018 7.28zm-16.677 0c0 5.367-4.365 9.732-9.73 9.732-5.366 0-9.732-4.365-9.732-9.732 0-5.367 4.366-9.733 9.732-9.733.299 0 .594.013.878.04a1.392 1.392 0 0 1-.255 2.773 6.697 6.697 0 0 0-.623-.028c-3.831 0-6.948 3.117-6.948 6.949a6.955 6.955 0 0 0 6.948 6.947c3.83 0 6.945-3.116 6.945-6.948 0-.201-.009-.403-.026-.602a1.392 1.392 0 1 1 2.773-.247c.025.28.037.566.038.85zm22.044-20.191l-8.11 8.111a4.144 4.144 0 0 1-2.952 1.223h-7.877l-11.312 11.315a1.388 1.388 0 0 1-1.969 0 1.393 1.393 0 0 1 0-1.97l11.313-11.314v-7.878a4.15 4.15 0 0 1 1.222-2.953l8.11-8.112c.8-.799 1.99-1.036 3.034-.603a2.778 2.778 0 0 1 1.719 2.574v4.853h4.853c1.13 0 2.14.675 2.573 1.72a2.775 2.775 0 0 1-.604 3.034zm-18.123-.514v5.096l8.517-8.52v-5.668l-8.11 8.109a1.382 1.382 0 0 0-.407.983zm16.154-1.454l-5.669-.001-8.516 8.519h5.092c.367 0 .725-.149.984-.407z"/></defs><g><g transform="translate(-651 -760)"><use fill="#fff" xlink:href="#7j0ca"/><use fill="#fff" xlink:href="#7j0ca"/></g></g></svg>