<svg xmlns="http://www.w3.org/2000/svg" xmlns:xlink="http://www.w3.org/1999/xlink" width="43" height="30" viewBox="0 0 43 30"><defs><path id="q2gca" d="M270 7325.36h-4.303L262 7330h-10l-.256 2.39c-.558 1.668-2.155 2.789-3.973 2.789h-5.721l-2.71 8.82h-6.062a3.86 3.86 0 0 1-3.038-1.442 3.566 3.566 0 0 1-.666-3.202l2.093-6.585a2.35 2.35 0 0 0-.439-2.112 2.544 2.544 0 0 0-2.005-.953h-1.26v-4.346H227v-6.76l3-2.599h31l.098-2h2.52v2.106h1.72v-2.107h2.52v2.107H270zm-2-7.36h-25l-1.347 4.93L268 7323zm-29.076 4.93l1.894-4.397h-2.224l-1.893 4.397zm-9.405 0h4.454L236 7318h-6l-.48 1.606zM250 7330h-7l-.28 2.75h5.05c.721 0 1.355-.444 1.576-1.106zm13-5h-32l-.518 2.429c1.081.265 2.043.87 2.743 1.749a4.693 4.693 0 0 1 .877 4.216l-2.093 6.586a1.22 1.22 0 0 0 .228 1.096c.25.315.352.924.763.924h4l4-14h20z"/></defs><g><g transform="translate(-227 -7314)"><use fill="#fff" xlink:href="#q2gca"/></g></g></svg>